<svg width="576" height="406" viewBox="0 0 576 406" fill="none" xmlns="http://www.w3.org/2000/svg">
<g clip-path="url(#clip0)">
<path fill-rule="evenodd" clip-rule="evenodd" d="M286.218 17.9842C244.053 17.9842 209.488 52.5768 209.488 94.7749V168.867C209.488 211.065 244.053 245.657 286.218 245.657C328.382 245.657 362.948 211.065 362.948 168.867V94.7749C362.948 52.5768 328.382 17.9842 286.218 17.9842ZM286.218 4C336.227 4 376.921 44.9714 376.921 94.7749V102.38C372.998 102.38 369.934 105.447 369.934 109.372C369.934 113.298 372.998 116.365 376.921 116.365V124.829C372.998 124.829 369.934 127.895 369.934 131.821C369.934 135.746 372.998 138.813 376.921 138.813V147.277C372.998 147.277 369.934 150.344 369.934 154.269C369.934 158.195 372.998 161.261 376.921 161.261V168.867C376.921 218.916 335.982 259.642 286.218 259.642C236.209 259.642 195.515 218.67 195.515 168.867V161.261C199.437 161.261 202.502 158.195 202.502 154.269C202.502 150.344 199.437 147.277 195.515 147.277V138.813C199.437 138.813 202.502 135.746 202.502 131.821C202.502 127.895 199.437 124.829 195.515 124.829V116.365C199.437 116.365 202.502 113.298 202.502 109.372C202.502 105.447 199.437 102.38 195.515 102.38V94.7749C195.515 44.726 236.454 4 286.218 4Z" fill="white"/>
<path fill-rule="evenodd" clip-rule="evenodd" d="M230.448 94.7749C234.37 94.7749 237.434 97.8416 237.434 101.767V136.114C237.434 140.04 234.37 143.106 230.448 143.106C226.525 143.106 223.461 140.04 223.461 136.114V101.767C223.461 97.8416 226.525 94.7749 230.448 94.7749Z" fill="#EA7224"/>
<path fill-rule="evenodd" clip-rule="evenodd" d="M286.218 32.2139C290.14 32.2139 293.204 35.2806 293.204 39.206V109.005C293.204 112.93 290.14 115.997 286.218 115.997C282.296 115.997 279.231 112.93 279.231 109.005V39.206C279.231 35.2806 282.296 32.2139 286.218 32.2139Z" fill="#EA7224"/>
<path fill-rule="evenodd" clip-rule="evenodd" d="M258.026 44.9714C261.949 44.9714 265.013 48.0381 265.013 51.9635V122.13C265.013 126.055 261.949 129.122 258.026 129.122C254.104 129.122 251.04 126.055 251.04 122.13V51.9635C251.04 48.0381 254.104 44.9714 258.026 44.9714Z" fill="#EA7224"/>
<path fill-rule="evenodd" clip-rule="evenodd" d="M313.796 44.9714C317.718 44.9714 320.783 48.0381 320.783 51.9635V122.13C320.783 126.055 317.718 129.122 313.796 129.122C309.874 129.122 306.81 126.055 306.81 122.13V51.9635C306.81 48.0381 309.874 44.9714 313.796 44.9714Z" fill="#EA7224"/>
<path fill-rule="evenodd" clip-rule="evenodd" d="M341.743 84.4707C345.665 84.4707 348.729 87.5374 348.729 91.4628V140.285C348.729 144.21 345.665 147.277 341.743 147.277C337.82 147.277 334.756 144.21 334.756 140.285V91.4628C334.756 87.5374 337.82 84.4707 341.743 84.4707Z" fill="#EA7224"/>
<path fill-rule="evenodd" clip-rule="evenodd" d="M320.783 173.038C320.538 173.038 320.17 173.038 319.925 173.038C319.312 173.038 318.454 173.038 317.841 173.038C316.002 173.283 316.615 174.878 316.615 174.878C316.615 174.878 317.473 176.963 318.086 178.803C318.699 180.275 317.473 181.256 316.615 181.256C315.757 181.256 315.144 179.784 315.144 179.784C315.144 179.784 304.848 153.043 303.868 150.098C303.01 147.645 306.932 146.173 309.384 150.098L322.989 173.528C322.376 173.528 321.518 173.528 320.905 173.528V173.283L320.783 173.038ZM286.83 197.326C285.972 201.006 285.36 200.638 285.36 200.638C285.36 200.638 284.134 200.638 282.295 200.638C280.457 200.638 281.437 197.939 281.437 197.939C281.437 197.939 289.895 166.413 290.508 164.205C291.12 162.12 289.282 162.12 289.282 162.12C289.282 162.12 286.83 162.12 285.605 162.12C284.379 162.12 284.134 162.733 284.134 162.733C284.134 162.733 282.908 165.8 282.05 168.499C281.192 171.198 280.579 170.584 280.579 170.584C280.579 170.584 277.515 170.584 275.676 170.584C274.206 170.584 274.818 168.499 274.818 168.499C274.818 168.499 282.418 148.136 283.031 146.296C283.644 144.456 281.805 144.456 281.805 144.456C281.805 144.456 280.579 144.456 279.108 144.456C277.638 144.456 278.25 142.37 278.25 142.37C278.25 142.37 283.766 128.754 284.379 126.914C284.624 126.055 284.992 126.055 285.605 126.914L296.881 157.827C293.572 171.198 290.262 184.568 286.83 197.939L287.076 197.326H286.83ZM341.988 157.213C338.065 157.213 335.001 160.28 335.001 164.205V169.112C335.001 174.632 334.143 179.784 332.55 184.568L311.345 147.89C308.28 142.37 301.294 142.984 299.823 148.136L298.352 153.288L288.056 124.706C286.83 121.639 281.07 121.639 279.844 124.706L265.626 154.147C265.626 154.392 264.768 155.373 264.155 155.987L263.542 154.515C262.316 151.203 258.639 151.448 256.31 154.515L239.273 179.416C238.66 176.104 238.047 172.792 238.047 169.112V164.205C238.047 160.28 234.983 157.213 231.06 157.213C227.138 157.213 224.074 160.28 224.074 164.205V169.112C224.074 203.705 252.265 231.919 286.83 231.919C321.396 231.919 349.587 203.705 349.587 169.112V164.205C349.587 160.28 346.523 157.213 342.6 157.213H341.988Z" fill="white"/>
<path fill-rule="evenodd" clip-rule="evenodd" d="M89.9808 395.068V342.811C89.9808 325.76 81.7686 308.219 59.338 308.219C47.8163 308.219 38.1331 314.843 34.2109 322.203H33.9657V310.672H7V395.068H34.9463V349.19C34.9463 339.499 40.0943 331.035 49.7774 331.035C59.8283 331.035 62.1571 339.499 62.1571 348.945V395.068H90.1034H89.9808Z" fill="#EA7224"/>
<path fill-rule="evenodd" clip-rule="evenodd" d="M116.701 337.414C121.849 332.507 129.449 328.95 137.661 328.95C146.118 328.95 152.86 332.875 152.86 341.094V342.32C128.346 342.32 98.9284 346.246 98.9284 370.902C98.9284 390.652 116.211 397.276 129.571 397.276C139.622 397.276 149.305 393.351 153.473 386.359H154.086V395.436H179.58V352.993C179.58 322.325 168.917 308.341 140.725 308.341C127.12 308.341 113.147 313.248 103.096 322.571L117.069 337.782L116.824 337.536L116.701 337.414ZM153.718 361.334C153.718 372.006 147.344 378.63 136.435 378.63C130.92 378.63 124.301 376.545 124.301 370.166C124.301 360.107 137.906 358.635 150.041 358.635H153.718V361.334Z" fill="#EA7224"/>
<path fill-rule="evenodd" clip-rule="evenodd" d="M247.73 331.648V310.672H227.996V288.469H200.663V310.672H187.302V331.648H200.908V367.1C200.908 385.009 208.507 397.153 230.938 397.153C236.944 397.153 243.318 395.927 246.995 394.7L246.75 374.337C244.666 375.196 241.234 375.564 238.537 375.564C230.693 375.564 227.874 371.638 227.874 363.787V331.648H247.608H247.73Z" fill="white"/>
<path fill-rule="evenodd" clip-rule="evenodd" d="M311.958 309.2C310.732 308.587 308.281 308.587 305.952 308.587C295.656 308.587 287.443 314.72 283.153 323.184H282.908V311.04H256.188V395.436H283.766V352.011C283.766 345.019 288.669 332.875 303.5 332.875C305.584 332.875 308.035 333.12 310.487 333.734L311.713 309.445L311.958 309.2Z" fill="white"/>
<path fill-rule="evenodd" clip-rule="evenodd" d="M348.116 311.04H320.537V395.436H348.116V311.04ZM350.2 284.298C350.2 275.834 343.213 269.087 334.388 269.087C325.318 269.087 318.576 276.079 318.576 284.298C318.576 292.517 325.563 299.509 334.388 299.509C343.213 299.509 350.2 292.885 350.2 284.298Z" fill="white"/>
<path fill-rule="evenodd" clip-rule="evenodd" d="M384.765 267.247H356.574V395.068H384.765V267.247Z" fill="white"/>
<path fill-rule="evenodd" clip-rule="evenodd" d="M476.326 395.068V342.811C476.326 325.76 468.481 308.218 445.683 308.218C434.161 308.218 425.336 314.597 421.414 321.221H421.169V266.879H393.59V394.7H421.169V349.19C421.169 339.131 426.685 331.28 436.368 331.28C446.419 331.28 448.747 339.499 448.747 349.19V395.068H476.694H476.449H476.326Z" fill="white"/>
<path fill-rule="evenodd" clip-rule="evenodd" d="M502.801 337.414C507.949 332.507 515.549 328.95 523.761 328.95C532.218 328.95 538.96 332.875 538.96 341.094V342.32C514.445 342.32 485.028 346.246 485.028 370.902C485.028 390.652 502.311 397.276 515.671 397.276C525.722 397.276 535.405 393.351 539.573 386.359H540.185V395.436H565.68V352.993C565.68 322.325 555.017 308.341 526.825 308.341C513.22 308.341 499.247 313.248 489.196 322.571L503.169 337.782L502.924 337.536L502.801 337.414ZM539.818 361.334C539.818 372.006 533.444 378.63 522.535 378.63C517.019 378.63 510.401 376.545 510.401 370.166C510.401 360.107 524.006 358.635 536.141 358.635H539.818V361.334Z" fill="white"/>
<path fill-rule="evenodd" clip-rule="evenodd" d="M502.801 337.414C507.949 332.507 515.549 328.95 523.761 328.95C532.218 328.95 538.96 332.875 538.96 341.094V342.32C514.445 342.32 485.028 346.246 485.028 370.902C485.028 390.652 502.311 397.276 515.671 397.276C525.722 397.276 535.405 393.351 539.573 386.359H540.185V395.436H565.68V352.993C565.68 322.325 555.017 308.341 526.825 308.341C513.22 308.341 499.247 313.248 489.196 322.571L503.169 337.782L502.924 337.536L502.801 337.414ZM539.818 361.334C539.818 372.006 533.444 378.63 522.535 378.63C517.019 378.63 510.401 376.545 510.401 370.166C510.401 360.107 524.006 358.635 536.141 358.635H539.818V361.334Z" fill="white"/>
</g>
<defs>
<clipPath id="clip0">
<rect width="576" height="406" fill="white"/>
</clipPath>
</defs>
</svg>
