<svg width="514" height="167" viewBox="0 0 514 167" fill="none" xmlns="http://www.w3.org/2000/svg">
<path fill-rule="evenodd" clip-rule="evenodd" d="M196.762 110.914V76.926C196.762 65.8601 191.302 54.3991 176.338 54.3991C168.653 54.3991 162.182 58.7464 159.553 63.4889H159.351V55.9799H141.353V110.914H159.958V81.0757C159.958 74.7523 163.395 69.2194 169.866 69.2194C176.54 69.2194 178.158 74.7523 178.158 80.8781V110.914H196.762Z" fill="#41308E"/>
<path fill-rule="evenodd" clip-rule="evenodd" d="M214.556 73.3691C217.994 70.2074 223.05 67.8362 228.51 67.8362C234.172 67.8362 238.621 70.405 238.621 75.7404V76.5308C222.241 76.5308 202.625 79.0996 202.625 95.1056C202.625 107.95 214.152 112.297 223.05 112.297C229.723 112.297 236.194 109.728 239.025 105.183H239.429V111.112H256.416V83.4469C256.416 63.4889 249.338 54.3991 230.532 54.3991C221.432 54.3991 212.13 57.5607 205.456 63.6865L214.759 73.5667L214.556 73.3691ZM239.227 88.9799C239.227 95.896 234.981 100.243 227.701 100.243C224.061 100.243 219.612 98.8601 219.612 94.7104C219.612 88.1894 228.712 87.2014 236.801 87.2014H239.227V88.9799Z" fill="#41308E"/>
<path fill-rule="evenodd" clip-rule="evenodd" d="M301.917 69.6144V55.9797H288.773V41.5545H270.573V55.9797H261.675V69.6144H270.775V92.7341C270.775 104.393 275.831 112.297 290.795 112.297C294.839 112.297 299.086 111.507 301.513 110.716L301.31 97.4766C299.895 98.0694 297.67 98.267 295.85 98.267C290.593 98.267 288.773 95.6982 288.773 90.5604V69.6144H301.917Z" fill="#41308E"/>
<path fill-rule="evenodd" clip-rule="evenodd" d="M344.787 54.9915C343.978 54.5963 342.36 54.5963 340.742 54.5963C333.867 54.5963 328.407 58.5484 325.576 64.0813H325.373V56.1771H307.578V111.111H325.98V82.8538C325.98 78.3089 329.216 70.4047 339.124 70.4047C340.54 70.4047 342.158 70.6023 343.776 70.9975L344.584 55.1891L344.787 54.9915Z" fill="#41308E"/>
<path fill-rule="evenodd" clip-rule="evenodd" d="M368.853 56.1771H350.45V111.111H368.853V56.1771ZM370.268 38.7879C370.268 33.255 365.617 28.9077 359.753 28.9077C353.686 28.9077 349.237 33.4526 349.237 38.7879C349.237 44.1233 353.888 48.6682 359.753 48.6682C365.617 48.6682 370.268 44.3209 370.268 38.7879Z" fill="#41308E"/>
<path fill-rule="evenodd" clip-rule="evenodd" d="M393.32 27.7225H374.513V110.914H393.32V27.7225Z" fill="#41308E"/>
<path fill-rule="evenodd" clip-rule="evenodd" d="M454.188 110.914V76.9258C454.188 65.86 448.931 54.3989 433.764 54.3989C426.08 54.3989 420.215 58.5486 417.586 62.8959H417.384V27.5247H398.982V110.716H417.384V81.0755C417.384 74.5546 421.024 69.4169 427.495 69.4169C434.168 69.4169 435.786 74.7522 435.786 81.0755V110.914H454.391H454.188Z" fill="#41308E"/>
<path fill-rule="evenodd" clip-rule="evenodd" d="M471.782 73.3691C475.22 70.2074 480.276 67.8362 485.736 67.8362C491.398 67.8362 495.847 70.405 495.847 75.7404V76.5308C479.467 76.5308 459.851 79.0996 459.851 95.1056C459.851 107.95 471.378 112.297 480.276 112.297C486.949 112.297 493.42 109.728 496.251 105.183H496.655V111.112H513.642V83.4469C513.642 63.4889 506.564 54.3991 487.758 54.3991C478.658 54.3991 469.356 57.5607 462.682 63.6865L471.984 73.5667L471.782 73.3691ZM496.453 88.9799C496.453 95.896 492.207 100.243 484.927 100.243C481.287 100.243 476.838 98.8601 476.838 94.7104C476.838 88.1894 485.938 87.2014 494.027 87.2014H496.453V88.9799Z" fill="#41308E"/>
<path fill-rule="evenodd" clip-rule="evenodd" d="M471.782 73.3691C475.22 70.2074 480.276 67.8362 485.736 67.8362C491.398 67.8362 495.847 70.405 495.847 75.7404V76.5308C479.467 76.5308 459.851 79.0996 459.851 95.1056C459.851 107.95 471.378 112.297 480.276 112.297C486.949 112.297 493.42 109.728 496.251 105.183H496.655V111.112H513.642V83.4469C513.642 63.4889 506.564 54.3991 487.758 54.3991C478.658 54.3991 469.356 57.5607 462.682 63.6865L471.984 73.5667L471.782 73.3691ZM496.453 88.9799C496.453 95.896 492.207 100.243 484.927 100.243C481.287 100.243 476.838 98.8601 476.838 94.7104C476.838 88.1894 485.938 87.2014 494.027 87.2014H496.453V88.9799Z" fill="#41308E"/>
<path fill-rule="evenodd" clip-rule="evenodd" d="M401.61 131.465H396.352V126.525H393.724V131.465H389.881V133.836H393.724V145.1C393.724 149.052 396.352 149.842 398.172 149.842C399.386 149.842 400.801 149.645 401.61 149.249L401.408 146.878C400.599 147.273 399.588 147.471 398.779 147.471C397.161 147.471 396.15 146.878 396.15 144.309V133.836H401.408V131.465H401.61ZM378.355 134.231C377.141 131.86 374.715 131.07 372.288 131.07C368.85 131.07 365.615 132.651 365.615 136.405C365.615 139.764 369.053 140.752 370.266 141.148L372.693 141.74C374.513 142.136 376.13 142.728 376.13 144.507C376.13 146.483 373.906 147.471 371.884 147.471C369.659 147.471 368.042 146.483 367.03 144.902L364.806 146.483C366.424 149.052 369.053 150.04 371.884 150.04C375.524 150.04 378.961 148.459 378.961 144.507C378.961 141.938 377.141 140.16 374.513 139.567L371.884 138.974C369.457 138.381 368.244 137.788 368.244 136.207C368.244 134.231 370.266 133.639 372.086 133.639C373.906 133.639 375.321 134.627 375.928 136.01L378.153 134.429L378.355 134.231ZM348.628 140.357V141.74C348.628 144.902 346.808 147.471 343.168 147.471C341.146 147.471 338.922 146.483 338.922 144.112C338.922 140.555 344.786 140.357 347.415 140.357H348.831H348.628ZM347.415 138.381C342.966 138.381 336.091 138.776 336.091 144.507C336.091 148.064 339.124 149.645 342.359 149.645C345.191 149.645 347.213 148.657 348.831 146.285C348.831 147.273 348.831 148.261 349.033 149.249H351.459C351.257 148.261 351.055 146.681 351.055 145.297V137.393C351.055 133.046 348.022 131.07 344.382 131.07C340.944 131.07 338.315 132.058 336.697 133.639L338.315 135.417C339.933 134.034 341.753 133.243 343.977 133.243C347.213 133.243 348.628 134.824 348.628 137.788V138.184H347.415V138.381ZM324.564 134.034C322.744 132.058 320.317 131.07 317.891 130.872C312.026 130.872 308.184 134.824 308.184 140.16C308.184 145.495 311.824 149.645 317.891 149.447C320.317 149.447 322.744 148.459 324.564 146.285L322.542 144.704C321.733 146.088 319.913 147.076 317.891 147.076C313.644 147.076 311.015 144.112 311.015 139.962C311.015 135.812 313.644 132.848 317.891 132.848C319.913 132.848 321.531 133.836 322.542 135.219L324.564 133.639V134.034ZM277.851 140.357C277.851 136.405 280.48 133.243 284.726 133.243C288.973 133.243 292.006 136.405 292.006 140.357C292.006 144.309 288.973 147.471 284.726 147.471C280.48 147.471 277.851 144.309 277.851 140.357ZM294.433 120.399H291.804V134.429C290.186 132.058 287.153 131.07 284.726 131.07C279.064 131.07 275.02 135.022 275.02 140.357C275.02 145.692 279.064 149.645 284.726 149.645C287.153 149.645 290.186 148.657 291.804 146.285V149.249H294.433V120.399ZM259.651 140.357C259.651 144.309 257.022 147.471 252.775 147.471C248.529 147.471 245.9 144.309 245.9 140.357C245.9 136.405 248.529 133.243 252.775 133.243C257.022 133.243 259.651 136.405 259.651 140.357ZM262.482 140.357C262.482 135.022 258.438 131.07 252.775 131.07C247.113 131.07 243.069 135.022 243.069 140.357C243.069 145.692 247.113 149.645 252.775 149.645C258.438 149.645 262.482 145.692 262.482 140.357ZM227.7 140.357C227.7 144.309 225.071 147.471 220.825 147.471C216.578 147.471 213.545 144.309 213.545 140.357C213.545 136.405 216.578 133.243 220.825 133.243C225.071 133.243 227.7 136.405 227.7 140.357ZM211.118 160.315H213.747V146.285C215.365 148.657 218.398 149.645 220.825 149.645C226.487 149.645 230.531 145.692 230.531 140.357C230.531 135.022 226.487 131.07 220.825 131.07C218.398 131.07 215.365 132.058 213.747 134.429V131.465H211.118V160.315Z" fill="#41308E"/>
<path fill-rule="evenodd" clip-rule="evenodd" d="M60.4641 9.34512C32.3554 9.34512 9.30218 31.872 9.30218 59.3391V107.555C9.30218 135.022 32.3554 157.548 60.4641 157.548C88.5729 157.548 111.626 135.022 111.626 107.555V59.3391C111.626 31.872 88.5729 9.34512 60.4641 9.34512ZM60.4641 0.25531C93.8306 0.25531 120.928 26.9319 120.928 59.3391V64.2792C118.299 64.2792 116.277 66.2552 116.277 68.8241C116.277 71.3929 118.299 73.369 120.928 73.369V78.9019C118.299 78.9019 116.277 80.878 116.277 83.4468C116.277 86.0157 118.299 87.9917 120.928 87.9917V93.5246C118.299 93.5246 116.277 95.5007 116.277 98.0695C116.277 100.638 118.299 102.614 120.928 102.614V107.555C120.928 140.159 93.6284 166.638 60.4641 166.638C27.0976 166.638 0 139.962 0 107.555V102.614C2.62888 102.614 4.65109 100.638 4.65109 98.0695C4.65109 95.5007 2.62888 93.5246 0 93.5246V87.9917C2.62888 87.9917 4.65109 86.0157 4.65109 83.4468C4.65109 80.878 2.62888 78.9019 0 78.9019V73.369C2.62888 73.369 4.65109 71.3929 4.65109 68.8241C4.65109 66.2552 2.62888 64.2792 0 64.2792V59.3391C0 26.7343 27.2999 0.25531 60.4641 0.25531Z" fill="#41308E"/>
<path fill-rule="evenodd" clip-rule="evenodd" d="M23.2563 59.3392C25.8852 59.3392 27.9074 61.3153 27.9074 63.8841V86.2134C27.9074 88.7823 25.8852 90.7583 23.2563 90.7583C20.6274 90.7583 18.6052 88.7823 18.6052 86.2134V63.8841C18.6052 61.3153 20.6274 59.3392 23.2563 59.3392Z" fill="#41308E"/>
<path fill-rule="evenodd" clip-rule="evenodd" d="M60.4642 18.6324C63.0931 18.6324 65.1153 20.6084 65.1153 23.1773V68.6263C65.1153 71.1952 63.0931 73.1712 60.4642 73.1712C57.8353 73.1712 55.8131 71.1952 55.8131 68.6263V23.1773C55.8131 20.6084 57.8353 18.6324 60.4642 18.6324Z" fill="#41308E"/>
<path fill-rule="evenodd" clip-rule="evenodd" d="M41.6566 26.9319C44.2855 26.9319 46.3077 28.9079 46.3077 31.4768V77.1234C46.3077 79.6923 44.2855 81.6683 41.6566 81.6683C39.0277 81.6683 37.0055 79.6923 37.0055 77.1234V31.4768C37.0055 28.9079 39.0277 26.9319 41.6566 26.9319Z" fill="#41308E"/>
<path fill-rule="evenodd" clip-rule="evenodd" d="M78.8669 26.9319C81.4958 26.9319 83.518 28.9079 83.518 31.4768V77.1234C83.518 79.6923 81.4958 81.6683 78.8669 81.6683C76.238 81.6683 74.2158 79.6923 74.2158 77.1234V31.4768C74.2158 28.9079 76.238 26.9319 78.8669 26.9319Z" fill="#41308E"/>
<path fill-rule="evenodd" clip-rule="evenodd" d="M97.4697 52.6205C100.099 52.6205 102.121 54.5966 102.121 57.1654V88.9798C102.121 91.5486 100.099 93.5247 97.4697 93.5247C94.8408 93.5247 92.8186 91.5486 92.8186 88.9798V57.1654C92.8186 54.5966 94.8408 52.6205 97.4697 52.6205Z" fill="#41308E"/>
<path fill-rule="evenodd" clip-rule="evenodd" d="M83.5163 110.321C83.314 110.321 83.1118 110.321 82.9096 110.321C82.5051 110.321 81.8985 110.321 81.494 110.321C80.2807 110.518 80.6852 111.506 80.6852 111.506C80.6852 111.506 81.2918 112.89 81.6963 114.075C82.1007 115.063 81.2918 115.656 80.6852 115.656C80.0785 115.656 79.674 114.668 79.674 114.668C79.674 114.668 72.7985 97.2788 72.1919 95.3028C71.5852 93.7219 74.2141 92.7339 75.8318 95.3028L84.9318 110.518C84.5274 110.518 83.9207 110.518 83.5163 110.518V110.321ZM60.8675 126.129C60.2608 128.5 59.8564 128.303 59.8564 128.303C59.8564 128.303 59.0475 128.303 57.8342 128.303C56.6208 128.303 57.2275 126.524 57.2275 126.524C57.2275 126.524 62.8897 105.973 63.2941 104.59C63.6986 103.207 62.4852 103.207 62.4852 103.207C62.4852 103.207 60.8675 103.207 60.0586 103.207C59.2497 103.207 59.0475 103.602 59.0475 103.602C59.0475 103.602 58.2386 105.578 57.6319 107.357C57.0253 109.135 56.6208 108.74 56.6208 108.74C56.6208 108.74 54.5986 108.74 53.3853 108.74C52.3742 108.74 52.7786 107.357 52.7786 107.357C52.7786 107.357 57.8342 94.1171 58.2386 92.9315C58.643 91.7459 57.4297 91.7459 57.4297 91.7459C57.4297 91.7459 56.6208 91.7459 55.6097 91.7459C54.5986 91.7459 55.0031 90.3627 55.0031 90.3627C55.0031 90.3627 58.643 81.4705 59.0475 80.2848C59.2497 79.692 59.4519 79.692 59.8564 80.2848L67.3386 100.44C65.1141 109.135 62.8897 117.83 60.6653 126.524L60.8675 126.129ZM97.6717 100.045C95.0429 100.045 93.0207 102.021 93.0207 104.59V107.752C93.0207 111.309 92.414 114.668 91.4029 117.83L77.2474 93.9195C75.2252 90.3627 70.5741 90.7579 69.563 94.1171L68.5519 97.4764L61.6764 78.9016C60.8675 76.9255 57.0253 76.9255 56.2164 78.9016L46.712 98.0692C46.712 98.2668 46.1053 98.8597 45.7009 99.2549L45.2964 98.2668C44.4876 96.0932 42.0609 96.2908 40.4431 98.2668L29.1188 114.47C28.7143 112.297 28.3099 110.123 28.3099 107.752V104.59C28.3099 102.021 26.2877 100.045 23.6588 100.045C21.0299 100.045 19.0077 102.021 19.0077 104.59V107.752C19.0077 130.279 37.8143 148.656 60.8675 148.656C83.9207 148.656 102.727 130.279 102.727 107.752V104.59C102.727 102.021 100.705 100.045 98.0762 100.045H97.6717Z" fill="#41308E"/>
</svg>
