<?xml version="1.0" encoding="UTF-8"?>
<!DOCTYPE svg PUBLIC "-//W3C//DTD SVG 1.1//EN" "http://www.w3.org/Graphics/SVG/1.1/DTD/svg11.dtd">
<!-- Creator: CorelDRAW X6 -->
<svg xmlns="http://www.w3.org/2000/svg" xml:space="preserve" width="26.2466mm" height="9.3132mm" version="1.1" style="shape-rendering:geometricPrecision; text-rendering:geometricPrecision; image-rendering:optimizeQuality; fill-rule:evenodd; clip-rule:evenodd"
viewBox="0 0 2625 931"
 xmlns:xlink="http://www.w3.org/1999/xlink">
 <defs>
  <style type="text/css">
   <![CDATA[
    .str0 {stroke:#4C3F91;stroke-width:7.62}
    .fil1 {fill:#41308E}
    .fil0 {fill:#EA7224}
   ]]>
  </style>
 </defs>
 <g id="Camada_x0020_1">
  <metadata id="CorelCorpID_0Corel-Layer"/>
  <g id="_835343216">
   <path class="fil0" d="M1015 605l0 -172c0,-56 -27,-114 -101,-114 -38,0 -70,22 -83,46l-1 0 0 -38 -89 0 0 278 92 0 0 -151c0,-32 17,-60 49,-60 33,0 41,28 41,59l0 152 92 0 0 0z"/>
   <path class="fil0" d="M1103 415c17,-16 42,-28 69,-28 28,0 50,13 50,40l0 4c-81,0 -178,13 -178,94 0,65 57,87 101,87 33,0 65,-13 79,-36l2 0 0 30 84 0 0 -140c0,-101 -35,-147 -128,-147 -45,0 -91,16 -124,47l46 50 -1 -1zm122 79c0,35 -21,57 -57,57 -18,0 -40,-7 -40,-28 0,-33 45,-38 85,-38l12 0 0 9 0 0z"/>
   <path class="fil1" d="M1535 396l0 -69 -65 0 0 -73 -90 0 0 73 -44 0 0 69 45 0 0 117c0,59 25,99 99,99 20,0 41,-4 53,-8l-1 -67c-7,3 -18,4 -27,4 -26,0 -35,-13 -35,-39l0 -106 65 0 0 0z"/>
   <path class="fil1" d="M1747 322c-4,-2 -12,-2 -20,-2 -34,0 -61,20 -75,48l-1 0 0 -40 -88 0 0 278 91 0 0 -143c0,-23 16,-63 65,-63 7,0 15,1 23,3l4 -80 1 -1z"/>
   <path class="fil1" d="M1866 328l-91 0 0 278 91 0 0 -278zm0 278zm7 -366c0,-28 -23,-50 -52,-50 -30,0 -52,23 -52,50 0,27 23,50 52,50 29,0 52,-22 52,-50z"/>
   <polygon class="fil1" points="1987,184 1894,184 1894,605 1987,605 "/>
   <path class="fil1" d="M2288 605l0 -172c0,-56 -26,-114 -101,-114 -38,0 -67,21 -80,43l-1 0 0 -179 -91 0 0 421 91 0 0 -150c0,-33 18,-59 50,-59 33,0 41,27 41,59l0 151 92 0 -1 0z"/>
   <path class="fil1" d="M2375 415c17,-16 42,-28 69,-28 28,0 50,13 50,40l0 4c-81,0 -178,13 -178,94 0,65 57,87 101,87 33,0 65,-13 79,-36l2 0 0 30 84 0 0 -140c0,-101 -35,-147 -128,-147 -45,0 -91,16 -124,47l46 50 -1 -1zm122 79c0,35 -21,57 -57,57 -18,0 -40,-7 -40,-28 0,-33 45,-38 85,-38l12 0 0 9 0 0z"/>
   <path class="fil1 str0" d="M2375 415c17,-16 42,-28 69,-28 28,0 50,13 50,40l0 4c-81,0 -178,13 -178,94 0,65 57,87 101,87 33,0 65,-13 79,-36l2 0 0 30 84 0 0 -140c0,-101 -35,-147 -128,-147 -45,0 -91,16 -124,47l46 50 -1 -1zm122 79c0,35 -21,57 -57,57 -18,0 -40,-7 -40,-28 0,-33 45,-38 85,-38l12 0 0 9 0 0z"/>
   <path class="fil1" d="M2028 709l-26 0 0 -25 -13 0 0 25 -19 0 0 12 19 0 0 57c0,20 13,24 22,24 6,0 13,-1 17,-3l-1 -12c-4,2 -9,3 -13,3 -8,0 -13,-3 -13,-16l0 -53 26 0 0 -12 1 0zm-115 14c-6,-12 -18,-16 -30,-16 -17,0 -33,8 -33,27 0,17 17,22 23,24l12 3c9,2 17,5 17,14 0,10 -11,15 -21,15 -11,0 -19,-5 -24,-13l-11 8c8,13 21,18 35,18 18,0 35,-8 35,-28 0,-13 -9,-22 -22,-25l-13 -3c-12,-3 -18,-6 -18,-14 0,-10 10,-13 19,-13 9,0 16,5 19,12l11 -8 1 -1zm-147 31l0 7c0,16 -9,29 -27,29 -10,0 -21,-5 -21,-17 0,-18 29,-19 42,-19l7 0 -1 0zm-6 -10c-22,0 -56,2 -56,31 0,18 15,26 31,26 14,0 24,-5 32,-17l0 0c0,5 0,10 1,15l12 0c-1,-5 -2,-13 -2,-20l0 -40c0,-22 -15,-32 -33,-32 -17,0 -30,5 -38,13l8 9c8,-7 17,-11 28,-11 16,0 23,8 23,23l0 2 -6 0 0 1zm-113 -22c-9,-10 -21,-15 -33,-16 -29,0 -48,20 -48,47 0,27 18,48 48,47 12,0 24,-5 33,-16l-10 -8c-4,7 -13,12 -23,12 -21,0 -34,-15 -34,-36 0,-21 13,-36 34,-36 10,0 18,5 23,12l10 -8 0 2zm-231 32c0,-20 13,-36 34,-36 21,0 36,16 36,36 0,20 -15,36 -36,36 -21,0 -34,-16 -34,-36zm82 -101l-13 0 0 71 0 0c-8,-12 -23,-17 -35,-17 -28,0 -48,20 -48,47 0,27 20,47 48,47 12,0 27,-5 35,-17l0 0 0 15 13 0 0 -146 0 0zm-172 101c0,20 -13,36 -34,36 -21,0 -34,-16 -34,-36 0,-20 13,-36 34,-36 21,0 34,16 34,36zm14 0c0,-27 -20,-47 -48,-47 -28,0 -48,20 -48,47 0,27 20,47 48,47 28,0 48,-20 48,-47zm-172 0c0,20 -13,36 -34,36 -21,0 -36,-16 -36,-36 0,-20 15,-36 36,-36 21,0 34,16 34,36zm-82 101l13 0 0 -71 0 0c8,12 23,17 35,17 28,0 48,-20 48,-47 0,-27 -20,-47 -48,-47 -12,0 -27,5 -35,17l0 0 0 -15 -13 0 0 146 0 0z"/>
   <path class="fil1" d="M341 91c-139,0 -253,114 -253,253l0 244c0,139 114,253 253,253 139,0 253,-114 253,-253l0 -244c0,-139 -114,-253 -253,-253zm0 -46l0 0c165,0 299,135 299,299l0 25c-13,0 -23,10 -23,23 0,13 10,23 23,23l0 28c-13,0 -23,10 -23,23 0,13 10,23 23,23l0 28c-13,0 -23,10 -23,23 0,13 10,23 23,23l0 25c0,165 -135,299 -299,299 -165,0 -299,-135 -299,-299l0 -25c13,0 23,-10 23,-23 0,-13 -10,-23 -23,-23l0 -28c13,0 23,-10 23,-23 0,-13 -10,-23 -23,-23l0 -28c13,0 23,-10 23,-23 0,-13 -10,-23 -23,-23l0 -25c0,-165 135,-299 299,-299z"/>
   <path class="fil0" d="M157 344l0 0c13,0 23,10 23,23l0 113c0,13 -10,23 -23,23 -13,0 -23,-10 -23,-23l0 -113c0,-13 10,-23 23,-23z"/>
   <path class="fil0" d="M341 138l0 0c13,0 23,10 23,23l0 230c0,13 -10,23 -23,23 -13,0 -23,-10 -23,-23l0 -230c0,-13 10,-23 23,-23z"/>
   <path class="fil0" d="M248 180l0 0c13,0 23,10 23,23l0 231c0,13 -10,23 -23,23 -13,0 -23,-10 -23,-23l0 -231c0,-13 10,-23 23,-23z"/>
   <path class="fil0" d="M432 180l0 0c13,0 23,10 23,23l0 231c0,13 -10,23 -23,23 -13,0 -23,-10 -23,-23l0 -231c0,-13 10,-23 23,-23z"/>
   <path class="fil0" d="M524 310l0 0c13,0 23,10 23,23l0 161c0,13 -10,23 -23,23 -13,0 -23,-10 -23,-23l0 -161c0,-13 10,-23 23,-23z"/>
   <path class="fil1" d="M455 602c-1,0 -2,0 -3,0l0 0 0 0 0 0 0 0c-2,0 -5,0 -7,0 -6,1 -4,6 -4,6 0,0 3,7 5,13 2,5 -2,8 -5,8 -3,0 -5,-5 -5,-5 0,0 -34,-88 -37,-98 -3,-8 10,-13 18,0l45 77c-2,0 -5,0 -7,0l0 -1zm-112 80c-3,12 -5,11 -5,11 0,0 -4,0 -10,0 -6,0 -3,-9 -3,-9 0,0 28,-104 30,-111 2,-7 -4,-7 -4,-7 0,0 -8,0 -12,0 -4,0 -5,2 -5,2 0,0 -4,10 -7,19 -3,9 -5,7 -5,7 0,0 -10,0 -16,0 -5,0 -3,-7 -3,-7 0,0 25,-67 27,-73 2,-6 -4,-6 -4,-6 0,0 -4,0 -9,0 -5,0 -3,-7 -3,-7 0,0 18,-45 20,-51l0 0c1,-3 2,-3 4,0l37 102c-11,44 -22,88 -33,132l1 -2zm182 -132c-13,0 -23,10 -23,23l0 16c0,18 -3,35 -8,51l-70 -121c-10,-18 -33,-16 -38,1l-5 17 -34 -94c-4,-10 -23,-10 -27,0l-47 97c0,1 -3,4 -5,6l-2 -5c-4,-11 -16,-10 -24,0l-56 82c-2,-11 -4,-22 -4,-34l0 -16c0,-13 -10,-23 -23,-23 -13,0 -23,10 -23,23l0 16c0,114 93,207 207,207 114,0 207,-93 207,-207l0 -16c0,-13 -10,-23 -23,-23l-2 0z"/>
  </g>
 </g>
</svg>
