<svg width="525" height="179" viewBox="0 0 525 179" fill="none" xmlns="http://www.w3.org/2000/svg">
<g clip-path="url(#clip0)">
<path fill-rule="evenodd" clip-rule="evenodd" d="M201.762 118.914V84.926C201.762 73.8601 196.302 62.3991 181.338 62.3991C173.653 62.3991 167.182 66.7464 164.553 71.4889H164.351V63.9799H146.353V118.914H164.958V89.0757C164.958 82.7523 168.395 77.2194 174.866 77.2194C181.54 77.2194 183.158 82.7523 183.158 88.8781V118.914H201.762Z" fill="#41308E"/>
<path fill-rule="evenodd" clip-rule="evenodd" d="M219.556 81.3691C222.994 78.2074 228.05 75.8362 233.51 75.8362C239.172 75.8362 243.621 78.405 243.621 83.7404V84.5308C227.241 84.5308 207.625 87.0996 207.625 103.106C207.625 115.95 219.152 120.297 228.05 120.297C234.723 120.297 241.194 117.728 244.025 113.183H244.429V119.112H261.416V91.4469C261.416 71.4889 254.338 62.3991 235.532 62.3991C226.432 62.3991 217.13 65.5607 210.456 71.6865L219.759 81.5667L219.556 81.3691ZM244.227 96.9799C244.227 103.896 239.981 108.243 232.701 108.243C229.061 108.243 224.612 106.86 224.612 102.71C224.612 96.1894 233.712 95.2014 241.801 95.2014H244.227V96.9799Z" fill="#41308E"/>
<path fill-rule="evenodd" clip-rule="evenodd" d="M306.917 77.6144V63.9797H293.773V49.5545H275.573V63.9797H266.675V77.6144H275.775V100.734C275.775 112.393 280.831 120.297 295.795 120.297C299.839 120.297 304.086 119.507 306.513 118.716L306.31 105.477C304.895 106.069 302.67 106.267 300.85 106.267C295.593 106.267 293.773 103.698 293.773 98.5604V77.6144H306.917Z" fill="#41308E"/>
<path fill-rule="evenodd" clip-rule="evenodd" d="M349.787 62.9915C348.978 62.5963 347.36 62.5963 345.742 62.5963C338.867 62.5963 333.407 66.5484 330.576 72.0813H330.373V64.1771H312.578V119.111H330.98V90.8538C330.98 86.3089 334.216 78.4047 344.124 78.4047C345.54 78.4047 347.158 78.6023 348.776 78.9975L349.584 63.1891L349.787 62.9915Z" fill="#41308E"/>
<path fill-rule="evenodd" clip-rule="evenodd" d="M373.853 64.1771H355.45V119.111H373.853V64.1771ZM375.268 46.7879C375.268 41.255 370.617 36.9077 364.753 36.9077C358.686 36.9077 354.237 41.4526 354.237 46.7879C354.237 52.1233 358.888 56.6682 364.753 56.6682C370.617 56.6682 375.268 52.3209 375.268 46.7879Z" fill="#41308E"/>
<path fill-rule="evenodd" clip-rule="evenodd" d="M398.32 35.7225H379.513V118.914H398.32V35.7225Z" fill="#41308E"/>
<path fill-rule="evenodd" clip-rule="evenodd" d="M459.188 118.914V84.9258C459.188 73.86 453.931 62.3989 438.764 62.3989C431.08 62.3989 425.215 66.5486 422.586 70.8959H422.384V35.5247H403.982V118.716H422.384V89.0755C422.384 82.5546 426.024 77.4169 432.495 77.4169C439.168 77.4169 440.786 82.7522 440.786 89.0755V118.914H459.391H459.188Z" fill="#41308E"/>
<path fill-rule="evenodd" clip-rule="evenodd" d="M476.782 81.3691C480.22 78.2074 485.276 75.8362 490.736 75.8362C496.398 75.8362 500.847 78.405 500.847 83.7404V84.5308C484.467 84.5308 464.851 87.0996 464.851 103.106C464.851 115.95 476.378 120.297 485.276 120.297C491.949 120.297 498.42 117.728 501.251 113.183H501.655V119.112H518.642V91.4469C518.642 71.4889 511.564 62.3991 492.758 62.3991C483.658 62.3991 474.356 65.5607 467.682 71.6865L476.984 81.5667L476.782 81.3691ZM501.453 96.9799C501.453 103.896 497.207 108.243 489.927 108.243C486.287 108.243 481.838 106.86 481.838 102.71C481.838 96.1894 490.938 95.2014 499.027 95.2014H501.453V96.9799Z" fill="#41308E"/>
<path fill-rule="evenodd" clip-rule="evenodd" d="M476.782 81.3691C480.22 78.2074 485.276 75.8362 490.736 75.8362C496.398 75.8362 500.847 78.405 500.847 83.7404V84.5308C484.467 84.5308 464.851 87.0996 464.851 103.106C464.851 115.95 476.378 120.297 485.276 120.297C491.949 120.297 498.42 117.728 501.251 113.183H501.655V119.112H518.642V91.4469C518.642 71.4889 511.564 62.3991 492.758 62.3991C483.658 62.3991 474.356 65.5607 467.682 71.6865L476.984 81.5667L476.782 81.3691ZM501.453 96.9799C501.453 103.896 497.207 108.243 489.927 108.243C486.287 108.243 481.838 106.86 481.838 102.71C481.838 96.1894 490.938 95.2014 499.027 95.2014H501.453V96.9799Z" fill="#41308E" stroke="#41308E" stroke-width="0.0761901"/>
<path fill-rule="evenodd" clip-rule="evenodd" d="M65.4641 17.3451C37.3554 17.3451 14.3022 39.872 14.3022 67.3391V115.555C14.3022 143.022 37.3554 165.548 65.4641 165.548C93.5729 165.548 116.626 143.022 116.626 115.555V67.3391C116.626 39.872 93.5729 17.3451 65.4641 17.3451ZM65.4641 8.25531C98.8306 8.25531 125.928 34.9319 125.928 67.3391V72.2792C123.299 72.2792 121.277 74.2552 121.277 76.8241C121.277 79.3929 123.299 81.369 125.928 81.369V86.9019C123.299 86.9019 121.277 88.878 121.277 91.4468C121.277 94.0157 123.299 95.9917 125.928 95.9917V101.525C123.299 101.525 121.277 103.501 121.277 106.07C121.277 108.638 123.299 110.614 125.928 110.614V115.555C125.928 148.159 98.6284 174.638 65.4641 174.638C32.0976 174.638 5 147.962 5 115.555V110.614C7.62888 110.614 9.65109 108.638 9.65109 106.07C9.65109 103.501 7.62888 101.525 5 101.525V95.9917C7.62888 95.9917 9.65109 94.0157 9.65109 91.4468C9.65109 88.878 7.62888 86.9019 5 86.9019V81.369C7.62888 81.369 9.65109 79.3929 9.65109 76.8241C9.65109 74.2552 7.62888 72.2792 5 72.2792V67.3391C5 34.7343 32.2999 8.25531 65.4641 8.25531Z" fill="#41308E"/>
<path fill-rule="evenodd" clip-rule="evenodd" d="M28.2563 67.3392C30.8852 67.3392 32.9074 69.3153 32.9074 71.8841V94.2134C32.9074 96.7823 30.8852 98.7583 28.2563 98.7583C25.6274 98.7583 23.6052 96.7823 23.6052 94.2134V71.8841C23.6052 69.3153 25.6274 67.3392 28.2563 67.3392Z" fill="#41308E"/>
<path fill-rule="evenodd" clip-rule="evenodd" d="M65.4642 26.6324C68.0931 26.6324 70.1153 28.6084 70.1153 31.1773V76.6263C70.1153 79.1952 68.0931 81.1712 65.4642 81.1712C62.8353 81.1712 60.8131 79.1952 60.8131 76.6263V31.1773C60.8131 28.6084 62.8353 26.6324 65.4642 26.6324Z" fill="#41308E"/>
<path fill-rule="evenodd" clip-rule="evenodd" d="M46.6566 34.9319C49.2855 34.9319 51.3077 36.9079 51.3077 39.4768V85.1234C51.3077 87.6923 49.2855 89.6683 46.6566 89.6683C44.0277 89.6683 42.0055 87.6923 42.0055 85.1234V39.4768C42.0055 36.9079 44.0277 34.9319 46.6566 34.9319Z" fill="#41308E"/>
<path fill-rule="evenodd" clip-rule="evenodd" d="M83.8669 34.9319C86.4958 34.9319 88.518 36.9079 88.518 39.4768V85.1234C88.518 87.6923 86.4958 89.6683 83.8669 89.6683C81.238 89.6683 79.2158 87.6923 79.2158 85.1234V39.4768C79.2158 36.9079 81.238 34.9319 83.8669 34.9319Z" fill="#41308E"/>
<path fill-rule="evenodd" clip-rule="evenodd" d="M102.47 60.6205C105.099 60.6205 107.121 62.5966 107.121 65.1654V96.9798C107.121 99.5486 105.099 101.525 102.47 101.525C99.8408 101.525 97.8186 99.5486 97.8186 96.9798V65.1654C97.8186 62.5966 99.8408 60.6205 102.47 60.6205Z" fill="#41308E"/>
<path fill-rule="evenodd" clip-rule="evenodd" d="M88.5163 118.321C88.314 118.321 88.1118 118.321 87.9096 118.321C87.5051 118.321 86.8985 118.321 86.494 118.321C85.2807 118.518 85.6852 119.506 85.6852 119.506C85.6852 119.506 86.2918 120.89 86.6963 122.075C87.1007 123.063 86.2918 123.656 85.6852 123.656C85.0785 123.656 84.674 122.668 84.674 122.668C84.674 122.668 77.7985 105.279 77.1919 103.303C76.5852 101.722 79.2141 100.734 80.8318 103.303L89.9318 118.518C89.5274 118.518 88.9207 118.518 88.5163 118.518V118.321ZM65.8675 134.129C65.2608 136.5 64.8564 136.303 64.8564 136.303C64.8564 136.303 64.0475 136.303 62.8342 136.303C61.6208 136.303 62.2275 134.524 62.2275 134.524C62.2275 134.524 67.8897 113.973 68.2941 112.59C68.6986 111.207 67.4852 111.207 67.4852 111.207C67.4852 111.207 65.8675 111.207 65.0586 111.207C64.2497 111.207 64.0475 111.602 64.0475 111.602C64.0475 111.602 63.2386 113.578 62.6319 115.357C62.0253 117.135 61.6208 116.74 61.6208 116.74C61.6208 116.74 59.5986 116.74 58.3853 116.74C57.3742 116.74 57.7786 115.357 57.7786 115.357C57.7786 115.357 62.8342 102.117 63.2386 100.932C63.643 99.7459 62.4297 99.7459 62.4297 99.7459C62.4297 99.7459 61.6208 99.7459 60.6097 99.7459C59.5986 99.7459 60.0031 98.3627 60.0031 98.3627C60.0031 98.3627 63.643 89.4705 64.0475 88.2848C64.2497 87.692 64.4519 87.692 64.8564 88.2848L72.3386 108.44C70.1141 117.135 67.8897 125.83 65.6653 134.524L65.8675 134.129ZM102.672 108.045C100.043 108.045 98.0207 110.021 98.0207 112.59V115.752C98.0207 119.309 97.414 122.668 96.4029 125.83L82.2474 101.92C80.2252 98.3627 75.5741 98.7579 74.563 102.117L73.5519 105.476L66.6764 86.9016C65.8675 84.9255 62.0253 84.9255 61.2164 86.9016L51.712 106.069C51.712 106.267 51.1053 106.86 50.7009 107.255L50.2964 106.267C49.4876 104.093 47.0609 104.291 45.4431 106.267L34.1188 122.47C33.7143 120.297 33.3099 118.123 33.3099 115.752V112.59C33.3099 110.021 31.2877 108.045 28.6588 108.045C26.0299 108.045 24.0077 110.021 24.0077 112.59V115.752C24.0077 138.279 42.8143 156.656 65.8675 156.656C88.9207 156.656 107.727 138.279 107.727 115.752V112.59C107.727 110.021 105.705 108.045 103.076 108.045H102.672Z" fill="#41308E"/>
<path d="M152.829 152.32C154.329 152.32 155.489 151.81 156.309 150.79C157.129 149.77 157.539 148.53 157.539 147.07C157.539 145.59 157.179 144.4 156.459 143.5C155.759 142.6 154.789 142.15 153.549 142.15C153.069 142.15 152.499 142.29 151.839 142.57C151.179 142.85 150.589 143.22 150.069 143.68V151.78C151.009 152.14 151.929 152.32 152.829 152.32ZM150.069 160.9H147.579V140.32H149.199L149.889 141.88C151.349 140.6 152.899 139.96 154.539 139.96C156.179 139.96 157.519 140.6 158.559 141.88C159.599 143.16 160.119 144.83 160.119 146.89C160.119 148.93 159.509 150.69 158.289 152.17C157.089 153.63 155.369 154.36 153.129 154.36C152.129 154.36 151.109 154.22 150.069 153.94V160.9ZM163.546 140.32H165.166L165.916 142.72H166.036C167.136 141.3 168.646 140.44 170.566 140.14L170.836 142.51C169.896 142.57 168.986 142.81 168.106 143.23C167.226 143.65 166.556 144.21 166.096 144.91V154H163.546V140.32ZM178.619 141.91C177.859 141.91 177.199 142.08 176.639 142.42C176.099 142.76 175.699 143.2 175.439 143.74C174.959 144.76 174.719 145.85 174.719 147.01C174.719 150.61 175.969 152.41 178.469 152.41C179.229 152.41 179.879 152.24 180.419 151.9C180.959 151.56 181.369 151.12 181.649 150.58C182.129 149.58 182.369 148.49 182.369 147.31C182.369 143.71 181.119 141.91 178.619 141.91ZM178.619 139.96C180.839 139.96 182.459 140.65 183.479 142.03C184.499 143.41 185.009 145.21 185.009 147.43C185.009 149.03 184.589 150.51 183.749 151.87C183.289 152.61 182.599 153.21 181.679 153.67C180.759 154.13 179.659 154.36 178.379 154.36C176.179 154.36 174.579 153.7 173.579 152.38C172.579 151.06 172.079 149.29 172.079 147.07C172.079 145.77 172.279 144.67 172.679 143.77C173.099 142.87 173.539 142.18 173.999 141.7C174.459 141.2 175.089 140.79 175.889 140.47C176.689 140.13 177.599 139.96 178.619 139.96ZM197.599 132.46H200.059V154H198.439L197.689 152.2C196.189 153.64 194.639 154.36 193.039 154.36C191.459 154.36 190.149 153.75 189.109 152.53C188.069 151.29 187.549 149.62 187.549 147.52C187.549 145.42 188.169 143.67 189.409 142.27C190.649 140.85 192.249 140.14 194.209 140.14C195.269 140.14 196.399 140.38 197.599 140.86V132.46ZM194.839 142.18C193.339 142.18 192.179 142.69 191.359 143.71C190.539 144.73 190.129 145.97 190.129 147.43C190.129 148.89 190.469 150.06 191.149 150.94C191.829 151.82 192.709 152.26 193.789 152.26C194.389 152.26 195.029 152.1 195.709 151.78C196.409 151.44 197.039 150.98 197.599 150.4V142.72C196.659 142.36 195.739 142.18 194.839 142.18ZM206.698 140.32V150.49C206.698 151.05 206.898 151.49 207.298 151.81C207.718 152.11 208.258 152.26 208.918 152.26C210.338 152.26 211.798 151.7 213.298 150.58V140.32H215.848V154H214.228L213.478 152.2C211.938 153.64 210.228 154.36 208.348 154.36C207.148 154.36 206.148 154.04 205.348 153.4C204.548 152.76 204.148 151.83 204.148 150.61V140.32H206.698ZM225.547 139.96C226.887 139.96 228.247 140.26 229.627 140.86L228.877 142.72C227.857 142.28 226.767 142.06 225.607 142.06C224.467 142.06 223.557 142.49 222.877 143.35C222.217 144.21 221.887 145.47 221.887 147.13C221.887 148.79 222.237 150.06 222.937 150.94C223.637 151.82 224.557 152.26 225.697 152.26C226.837 152.26 228.017 151.98 229.237 151.42L229.807 153.4C228.407 154.04 226.987 154.36 225.547 154.36C223.687 154.36 222.167 153.69 220.987 152.35C219.827 150.99 219.247 149.25 219.247 147.13C219.247 144.99 219.827 143.26 220.987 141.94C222.167 140.62 223.687 139.96 225.547 139.96ZM227.287 158.29C227.287 159.19 226.967 159.91 226.327 160.45C225.687 160.99 224.897 161.26 223.957 161.26C223.037 161.26 222.137 160.99 221.257 160.45L221.737 159.25C222.337 159.65 222.917 159.85 223.477 159.85C224.057 159.85 224.517 159.68 224.857 159.34C225.217 159.02 225.397 158.64 225.397 158.2C225.397 157.78 225.207 157.4 224.827 157.06C224.447 156.74 223.897 156.55 223.177 156.49L222.907 156.1L223.867 153.76H224.917L224.587 155.41C226.387 156.01 227.287 156.97 227.287 158.29ZM238.15 141.91C237.39 141.91 236.73 142.08 236.17 142.42C235.63 142.76 235.23 143.2 234.97 143.74C234.49 144.76 234.25 145.85 234.25 147.01C234.25 150.61 235.5 152.41 238 152.41C238.76 152.41 239.41 152.24 239.95 151.9C240.49 151.56 240.9 151.12 241.18 150.58C241.66 149.58 241.9 148.49 241.9 147.31C241.9 143.71 240.65 141.91 238.15 141.91ZM238.15 139.96C240.37 139.96 241.99 140.65 243.01 142.03C244.03 143.41 244.54 145.21 244.54 147.43C244.54 149.03 244.12 150.51 243.28 151.87C242.82 152.61 242.13 153.21 241.21 153.67C240.29 154.13 239.19 154.36 237.91 154.36C235.71 154.36 234.11 153.7 233.11 152.38C232.11 151.06 231.61 149.29 231.61 147.07C231.61 145.77 231.81 144.67 232.21 143.77C232.63 142.87 233.07 142.18 233.53 141.7C233.99 141.2 234.62 140.79 235.42 140.47C236.22 140.13 237.13 139.96 238.15 139.96ZM240.04 137.47C239.54 137.47 238.81 137.31 237.85 136.99C236.89 136.67 236.22 136.51 235.84 136.51C235.16 136.51 234.67 136.88 234.37 137.62L233.2 137.11C233.82 135.25 234.79 134.32 236.11 134.32C236.61 134.32 237.34 134.48 238.3 134.8C239.26 135.12 239.93 135.28 240.31 135.28C240.99 135.28 241.48 134.91 241.78 134.17L242.95 134.68C242.33 136.54 241.36 137.47 240.04 137.47ZM253.411 152.26C254.851 152.26 256.291 151.83 257.731 150.97L258.601 152.77C256.921 153.83 255.121 154.36 253.201 154.36C251.301 154.36 249.791 153.76 248.671 152.56C247.551 151.34 246.991 149.59 246.991 147.31C246.991 145.03 247.571 143.24 248.731 141.94C249.891 140.62 251.431 139.96 253.351 139.96C255.091 139.96 256.461 140.5 257.461 141.58C257.881 142.02 258.231 142.66 258.511 143.5C258.811 144.34 258.961 145.33 258.961 146.47L258.031 147.52H249.541C249.601 150.68 250.891 152.26 253.411 152.26ZM256.441 145.63C256.441 144.51 256.151 143.61 255.571 142.93C254.991 142.25 254.221 141.91 253.261 141.91C252.321 141.91 251.521 142.25 250.861 142.93C250.201 143.59 249.801 144.49 249.661 145.63H256.441ZM269.12 142.72C268.1 142.28 267.14 142.06 266.24 142.06C264.5 142.06 263.63 142.59 263.63 143.65C263.63 144.57 264.79 145.46 267.11 146.32C267.97 146.64 268.76 147.14 269.48 147.82C270.22 148.5 270.59 149.32 270.59 150.28C270.59 151.66 270.14 152.69 269.24 153.37C268.34 154.03 267.09 154.36 265.49 154.36C263.89 154.36 262.33 153.92 260.81 153.04L261.56 151.18C262.82 151.9 264.25 152.26 265.85 152.26C266.53 152.26 267.08 152.12 267.5 151.84C267.92 151.54 268.13 151.14 268.13 150.64C268.13 150.14 267.89 149.71 267.41 149.35C266.93 148.99 266.35 148.67 265.67 148.39C264.99 148.11 264.31 147.81 263.63 147.49C262.95 147.15 262.37 146.68 261.89 146.08C261.41 145.48 261.17 144.77 261.17 143.95C261.17 142.67 261.6 141.69 262.46 141.01C263.34 140.31 264.45 139.96 265.79 139.96C267.13 139.96 268.49 140.26 269.87 140.86L269.12 142.72ZM290.91 132.46H293.37V154H291.75L291 152.2C289.5 153.64 287.95 154.36 286.35 154.36C284.77 154.36 283.46 153.75 282.42 152.53C281.38 151.29 280.86 149.62 280.86 147.52C280.86 145.42 281.48 143.67 282.72 142.27C283.96 140.85 285.56 140.14 287.52 140.14C288.58 140.14 289.71 140.38 290.91 140.86V132.46ZM288.15 142.18C286.65 142.18 285.49 142.69 284.67 143.71C283.85 144.73 283.44 145.97 283.44 147.43C283.44 148.89 283.78 150.06 284.46 150.94C285.14 151.82 286.02 152.26 287.1 152.26C287.7 152.26 288.34 152.1 289.02 151.78C289.72 151.44 290.35 150.98 290.91 150.4V142.72C289.97 142.36 289.05 142.18 288.15 142.18ZM303.069 152.26C304.509 152.26 305.949 151.83 307.389 150.97L308.259 152.77C306.579 153.83 304.779 154.36 302.859 154.36C300.959 154.36 299.449 153.76 298.329 152.56C297.209 151.34 296.649 149.59 296.649 147.31C296.649 145.03 297.229 143.24 298.389 141.94C299.549 140.62 301.089 139.96 303.009 139.96C304.749 139.96 306.119 140.5 307.119 141.58C307.539 142.02 307.889 142.66 308.169 143.5C308.469 144.34 308.619 145.33 308.619 146.47L307.689 147.52H299.199C299.259 150.68 300.549 152.26 303.069 152.26ZM306.099 145.63C306.099 144.51 305.809 143.61 305.229 142.93C304.649 142.25 303.879 141.91 302.919 141.91C301.979 141.91 301.179 142.25 300.519 142.93C299.859 143.59 299.459 144.49 299.319 145.63H306.099ZM325.215 139.96C326.555 139.96 327.915 140.26 329.295 140.86L328.545 142.72C327.525 142.28 326.435 142.06 325.275 142.06C324.135 142.06 323.225 142.49 322.545 143.35C321.885 144.21 321.555 145.47 321.555 147.13C321.555 148.79 321.905 150.06 322.605 150.94C323.305 151.82 324.225 152.26 325.365 152.26C326.505 152.26 327.685 151.98 328.905 151.42L329.475 153.4C328.075 154.04 326.655 154.36 325.215 154.36C323.355 154.36 321.835 153.69 320.655 152.35C319.495 150.99 318.915 149.25 318.915 147.13C318.915 144.99 319.495 143.26 320.655 141.94C321.835 140.62 323.355 139.96 325.215 139.96ZM337.818 141.91C337.058 141.91 336.398 142.08 335.838 142.42C335.298 142.76 334.898 143.2 334.638 143.74C334.158 144.76 333.918 145.85 333.918 147.01C333.918 150.61 335.168 152.41 337.668 152.41C338.428 152.41 339.078 152.24 339.618 151.9C340.158 151.56 340.568 151.12 340.848 150.58C341.328 149.58 341.568 148.49 341.568 147.31C341.568 143.71 340.318 141.91 337.818 141.91ZM337.818 139.96C340.038 139.96 341.658 140.65 342.678 142.03C343.698 143.41 344.208 145.21 344.208 147.43C344.208 149.03 343.788 150.51 342.948 151.87C342.488 152.61 341.798 153.21 340.878 153.67C339.958 154.13 338.858 154.36 337.578 154.36C335.378 154.36 333.778 153.7 332.778 152.38C331.778 151.06 331.278 149.29 331.278 147.07C331.278 145.77 331.478 144.67 331.878 143.77C332.298 142.87 332.738 142.18 333.198 141.7C333.658 141.2 334.288 140.79 335.088 140.47C335.888 140.13 336.798 139.96 337.818 139.96ZM359.349 143.65V154H356.799V143.77C356.799 143.25 356.589 142.85 356.169 142.57C355.769 142.29 355.229 142.15 354.549 142.15C353.129 142.15 351.659 142.66 350.139 143.68V154H347.589V140.32H349.209L349.959 141.88C351.499 140.6 353.169 139.96 354.969 139.96C356.309 139.96 357.369 140.3 358.149 140.98C358.949 141.66 359.349 142.55 359.349 143.65ZM366.616 142.21V150.43C366.616 151.63 367.186 152.23 368.326 152.23C368.986 152.23 369.776 152.04 370.696 151.66L371.026 153.67C370.046 154.13 369.016 154.36 367.936 154.36C366.856 154.36 365.956 154.04 365.236 153.4C364.516 152.74 364.156 151.74 364.156 150.4V142.21H362.266V140.32H364.156V137.62L366.016 135.91H366.616V140.32H370.486V142.21H366.616ZM379.212 152.26C380.652 152.26 382.092 151.83 383.532 150.97L384.402 152.77C382.722 153.83 380.922 154.36 379.002 154.36C377.102 154.36 375.592 153.76 374.472 152.56C373.352 151.34 372.792 149.59 372.792 147.31C372.792 145.03 373.372 143.24 374.532 141.94C375.692 140.62 377.232 139.96 379.152 139.96C380.892 139.96 382.262 140.5 383.262 141.58C383.682 142.02 384.032 142.66 384.312 143.5C384.612 144.34 384.762 145.33 384.762 146.47L383.832 147.52H375.342C375.402 150.68 376.692 152.26 379.212 152.26ZM382.242 145.63C382.242 144.51 381.952 143.61 381.372 142.93C380.792 142.25 380.022 141.91 379.062 141.91C378.122 141.91 377.322 142.25 376.662 142.93C376.002 143.59 375.602 144.49 375.462 145.63H382.242ZM390.331 140.32V150.49C390.331 151.05 390.531 151.49 390.931 151.81C391.351 152.11 391.891 152.26 392.551 152.26C393.971 152.26 395.431 151.7 396.931 150.58V140.32H399.481V154H397.861L397.111 152.2C395.571 153.64 393.861 154.36 391.981 154.36C390.781 154.36 389.781 154.04 388.981 153.4C388.181 152.76 387.781 151.83 387.781 150.61V140.32H390.331ZM393.961 138.61H392.041L395.851 133.09L398.011 134.71L393.961 138.61ZM413.019 132.46H415.479V154H413.859L413.109 152.2C411.609 153.64 410.059 154.36 408.459 154.36C406.879 154.36 405.569 153.75 404.529 152.53C403.489 151.29 402.969 149.62 402.969 147.52C402.969 145.42 403.589 143.67 404.829 142.27C406.069 140.85 407.669 140.14 409.629 140.14C410.689 140.14 411.819 140.38 413.019 140.86V132.46ZM410.259 142.18C408.759 142.18 407.599 142.69 406.779 143.71C405.959 144.73 405.549 145.97 405.549 147.43C405.549 148.89 405.889 150.06 406.569 150.94C407.249 151.82 408.129 152.26 409.209 152.26C409.809 152.26 410.449 152.1 411.129 151.78C411.829 151.44 412.459 150.98 413.019 150.4V142.72C412.079 142.36 411.159 142.18 410.259 142.18ZM425.298 141.91C424.538 141.91 423.878 142.08 423.318 142.42C422.778 142.76 422.378 143.2 422.118 143.74C421.638 144.76 421.398 145.85 421.398 147.01C421.398 150.61 422.648 152.41 425.148 152.41C425.908 152.41 426.558 152.24 427.098 151.9C427.638 151.56 428.048 151.12 428.328 150.58C428.808 149.58 429.048 148.49 429.048 147.31C429.048 143.71 427.798 141.91 425.298 141.91ZM425.298 139.96C427.518 139.96 429.138 140.65 430.158 142.03C431.178 143.41 431.688 145.21 431.688 147.43C431.688 149.03 431.268 150.51 430.428 151.87C429.968 152.61 429.278 153.21 428.358 153.67C427.438 154.13 426.338 154.36 425.058 154.36C422.858 154.36 421.258 153.7 420.258 152.38C419.258 151.06 418.758 149.29 418.758 147.07C418.758 145.77 418.958 144.67 419.358 143.77C419.778 142.87 420.218 142.18 420.678 141.7C421.138 141.2 421.768 140.79 422.568 140.47C423.368 140.13 424.278 139.96 425.298 139.96ZM452.365 132.46H454.825V154H453.205L452.455 152.2C450.955 153.64 449.405 154.36 447.805 154.36C446.225 154.36 444.915 153.75 443.875 152.53C442.835 151.29 442.315 149.62 442.315 147.52C442.315 145.42 442.935 143.67 444.175 142.27C445.415 140.85 447.015 140.14 448.975 140.14C450.035 140.14 451.165 140.38 452.365 140.86V132.46ZM449.605 142.18C448.105 142.18 446.945 142.69 446.125 143.71C445.305 144.73 444.895 145.97 444.895 147.43C444.895 148.89 445.235 150.06 445.915 150.94C446.595 151.82 447.475 152.26 448.555 152.26C449.155 152.26 449.795 152.1 450.475 151.78C451.175 151.44 451.805 150.98 452.365 150.4V142.72C451.425 142.36 450.505 142.18 449.605 142.18ZM461.704 137.11C461.384 137.43 460.994 137.59 460.534 137.59C460.074 137.59 459.684 137.43 459.364 137.11C459.044 136.77 458.884 136.37 458.884 135.91C458.884 135.45 459.044 135.06 459.364 134.74C459.704 134.4 460.094 134.23 460.534 134.23C460.974 134.23 461.354 134.4 461.674 134.74C462.014 135.06 462.184 135.45 462.184 135.91C462.184 136.37 462.024 136.77 461.704 137.11ZM459.274 140.32H461.824V154H459.274V140.32ZM470.858 150.13C470.398 150.13 469.958 150.1 469.538 150.04C469.038 151 468.788 151.63 468.788 151.93C468.788 152.07 468.968 152.19 469.328 152.29L472.988 153.1C474.688 153.48 475.898 153.92 476.618 154.42C477.338 154.94 477.698 155.7 477.698 156.7C477.698 157.7 477.348 158.54 476.648 159.22C475.288 160.58 473.288 161.26 470.648 161.26C469.028 161.26 467.628 160.96 466.448 160.36C465.268 159.76 464.678 158.9 464.678 157.78C464.678 156.66 465.478 155.37 467.078 153.91C466.478 153.69 466.178 153.36 466.178 152.92C466.178 152.48 466.768 151.39 467.948 149.65C466.228 148.91 465.368 147.36 465.368 145C465.368 143.68 465.828 142.53 466.748 141.55C467.688 140.55 469.058 140.05 470.858 140.05C471.898 140.05 472.808 140.2 473.588 140.5L477.788 140.02V142.03H475.538C476.058 142.87 476.318 143.94 476.318 145.24C476.318 146.52 475.858 147.66 474.938 148.66C474.018 149.64 472.658 150.13 470.858 150.13ZM473.918 145.45C473.918 142.97 472.908 141.73 470.888 141.73C470.088 141.73 469.438 141.94 468.938 142.36C468.158 143.04 467.768 143.89 467.768 144.91C467.768 145.91 468.008 146.75 468.488 147.43C468.968 148.11 469.738 148.45 470.798 148.45C471.858 148.45 472.638 148.13 473.138 147.49C473.658 146.83 473.918 146.15 473.918 145.45ZM467.078 157.39C467.078 158.03 467.428 158.52 468.128 158.86C468.828 159.2 469.738 159.37 470.858 159.37C471.978 159.37 473.018 159.14 473.978 158.68C474.938 158.24 475.418 157.63 475.418 156.85C475.418 156.45 475.188 156.12 474.728 155.86C474.268 155.62 473.468 155.38 472.328 155.14L468.818 154.36C467.658 155.52 467.078 156.53 467.078 157.39ZM483.12 137.11C482.8 137.43 482.41 137.59 481.95 137.59C481.49 137.59 481.1 137.43 480.78 137.11C480.46 136.77 480.3 136.37 480.3 135.91C480.3 135.45 480.46 135.06 480.78 134.74C481.12 134.4 481.51 134.23 481.95 134.23C482.39 134.23 482.77 134.4 483.09 134.74C483.43 135.06 483.6 135.45 483.6 135.91C483.6 136.37 483.44 136.77 483.12 137.11ZM480.69 140.32H483.24V154H480.69V140.32ZM490.864 142.21V150.43C490.864 151.63 491.434 152.23 492.574 152.23C493.234 152.23 494.024 152.04 494.944 151.66L495.274 153.67C494.294 154.13 493.264 154.36 492.184 154.36C491.104 154.36 490.204 154.04 489.484 153.4C488.764 152.74 488.404 151.74 488.404 150.4V142.21H486.514V140.32H488.404V137.62L490.264 135.91H490.864V140.32H494.734V142.21H490.864ZM505.47 145.81V144.49C505.47 142.87 504.63 142.06 502.95 142.06C501.63 142.06 500.25 142.49 498.81 143.35L497.94 141.55C499.62 140.49 501.43 139.96 503.37 139.96C504.73 139.96 505.84 140.31 506.7 141.01C507.58 141.69 508.02 142.75 508.02 144.19V154H506.4L505.65 152.2C505.01 152.86 504.25 153.39 503.37 153.79C502.49 154.17 501.69 154.36 500.97 154.36C499.73 154.36 498.74 154.02 498 153.34C497.26 152.66 496.89 151.77 496.89 150.67C496.89 147.43 499.75 145.81 505.47 145.81ZM500.49 148.72C500.11 149.06 499.85 149.37 499.71 149.65C499.59 149.91 499.53 150.26 499.53 150.7C499.53 151.12 499.71 151.49 500.07 151.81C500.45 152.11 500.94 152.26 501.54 152.26C502.8 152.26 504.11 151.7 505.47 150.58V147.58C502.95 147.62 501.29 148 500.49 148.72ZM512.088 132.46H514.548V154H512.088V132.46Z" fill="#41308E"/>
</g>
<defs>
<clipPath id="clip0">
<rect width="525" height="179" fill="white"/>
</clipPath>
</defs>
</svg>
