<?xml version="1.0" encoding="UTF-8"?>
<!DOCTYPE svg PUBLIC "-//W3C//DTD SVG 1.1//EN" "http://www.w3.org/Graphics/SVG/1.1/DTD/svg11.dtd">
<!-- Creator: CorelDRAW X6 -->
<svg xmlns="http://www.w3.org/2000/svg" xml:space="preserve" width="44.556mm" height="297mm" version="1.1" style="shape-rendering:geometricPrecision; text-rendering:geometricPrecision; image-rendering:optimizeQuality; fill-rule:evenodd; clip-rule:evenodd"
viewBox="0 0 4456 29700"
 xmlns:xlink="http://www.w3.org/1999/xlink">
 <defs>
  <style type="text/css">
   <![CDATA[
    .fil0 {fill:none}
    .fil2 {fill:black}
    .fil18 {fill:#040505}
    .fil30 {fill:#08A0FF}
    .fil29 {fill:#0E81FB}
    .fil34 {fill:#1976D2}
    .fil12 {fill:#1C1F3B}
    .fil32 {fill:#2275BC}
    .fil21 {fill:#2E64AC}
    .fil31 {fill:#32509D}
    .fil16 {fill:#3298CD}
    .fil24 {fill:#33A952}
    .fil40 {fill:#3474BA}
    .fil19 {fill:#3EB559}
    .fil20 {fill:#404041}
    .fil36 {fill:#494949}
    .fil8 {fill:#4EC2F6}
    .fil22 {fill:#527BBD}
    .fil15 {fill:#622468}
    .fil41 {fill:#69B345}
    .fil26 {fill:#85C808}
    .fil35 {fill:#902BCC}
    .fil1 {fill:#B1E3FA}
    .fil17 {fill:#C23827}
    .fil28 {fill:#C70025}
    .fil33 {fill:#CA2027}
    .fil9 {fill:#CCDB38}
    .fil23 {fill:#E74436}
    .fil5 {fill:#E7EE9F}
    .fil13 {fill:#EA8823}
    .fil25 {fill:#F7B717}
    .fil4 {fill:#F7BACF}
    .fil14 {fill:#F9C716}
    .fil11 {fill:#FE3D02}
    .fil10 {fill:#FE3F80}
    .fil7 {fill:#FE9D7F}
    .fil6 {fill:#FEEA3A}
    .fil27 {fill:#FF6600}
    .fil3 {fill:white}
    .fil39 {fill:url(#id0)}
    .fil37 {fill:url(#id1)}
    .fil38 {fill:url(#id2)}
   ]]>
  </style>
  <linearGradient id="id0" gradientUnits="userSpaceOnUse" x1="935.94" y1="24280.7" x2="935.94" y2="24373.5">
   <stop offset="0" style="stop-color:#EB404A"/>
   <stop offset="0.0117647" style="stop-color:#EB404A"/>
   <stop offset="0.980392" style="stop-color:#8A3CA9"/>
   <stop offset="1" style="stop-color:#8A3CA9"/>
  </linearGradient>
  <linearGradient id="id1" gradientUnits="userSpaceOnUse" xlink:href="#id0" x1="761.68" y1="24151.3" x2="723.46" y2="24877.3">
  </linearGradient>
  <linearGradient id="id2" gradientUnits="userSpaceOnUse" xlink:href="#id0" x1="752.25" y1="24331.9" x2="732.89" y2="24699.8">
  </linearGradient>
 </defs>
 <g id="Camada_x0020_1">
  <metadata id="CorelCorpID_0Corel-Layer"/>
  <rect class="fil0" y="-2" width="1485" height="1485"/>
  <rect class="fil0" x="1485" y="-2" width="1485" height="1485"/>
  <rect class="fil0" x="2970" y="-2" width="1485" height="1485"/>
  <rect class="fil0" y="1484" width="1485" height="1485"/>
  <rect class="fil0" x="1485" y="1484" width="1485" height="1485"/>
  <rect class="fil0" x="2970" y="1484" width="1485" height="1485"/>
  <rect class="fil0" y="2969" width="1485" height="1485"/>
  <rect class="fil0" x="1485" y="2969" width="1485" height="1485"/>
  <rect class="fil0" x="2970" y="2969" width="1485" height="1485"/>
  <rect class="fil0" y="4454" width="1485" height="1485"/>
  <rect class="fil0" x="1485" y="4454" width="1485" height="1485"/>
  <rect class="fil0" x="2970" y="4454" width="1485" height="1485"/>
  <rect class="fil0" y="5939" width="1485" height="1485"/>
  <rect class="fil0" x="1485" y="5939" width="1485" height="1485"/>
  <rect class="fil0" x="2970" y="5939" width="1485" height="1485"/>
  <rect class="fil0" y="7424" width="1485" height="1485"/>
  <rect class="fil0" x="1485" y="7424" width="1485" height="1485"/>
  <rect class="fil0" x="2970" y="7424" width="1485" height="1485"/>
  <rect class="fil0" y="8909" width="1485" height="1485"/>
  <rect class="fil0" x="1485" y="8909" width="1485" height="1485"/>
  <rect class="fil0" x="2970" y="8909" width="1485" height="1485"/>
  <rect class="fil0" y="10395" width="1485" height="1485"/>
  <rect class="fil0" x="1485" y="10395" width="1485" height="1485"/>
  <rect class="fil0" x="2970" y="10395" width="1485" height="1485"/>
  <rect class="fil0" y="11880" width="1485" height="1485"/>
  <rect class="fil0" x="1485" y="11880" width="1485" height="1485"/>
  <rect class="fil0" x="2970" y="11880" width="1485" height="1485"/>
  <rect class="fil0" y="13365" width="1485" height="1485"/>
  <rect class="fil0" x="1485" y="13365" width="1485" height="1485"/>
  <rect class="fil0" x="2970" y="13365" width="1485" height="1485"/>
  <rect class="fil0" y="14850" width="1485" height="1485"/>
  <rect class="fil0" x="1485" y="14850" width="1485" height="1485"/>
  <rect class="fil0" x="2970" y="14850" width="1485" height="1485"/>
  <rect class="fil0" y="16335" width="1485" height="1485"/>
  <rect class="fil0" x="1485" y="16335" width="1485" height="1485"/>
  <rect class="fil0" x="2970" y="16335" width="1485" height="1485"/>
  <rect class="fil0" y="17820" width="1485" height="1485"/>
  <rect class="fil0" x="1485" y="17820" width="1485" height="1485"/>
  <rect class="fil0" x="2970" y="17820" width="1485" height="1485"/>
  <rect class="fil0" y="19305" width="1485" height="1485"/>
  <rect class="fil0" x="1485" y="19305" width="1485" height="1485"/>
  <rect class="fil0" x="2970" y="19305" width="1485" height="1485"/>
  <rect class="fil0" y="20791" width="1485" height="1485"/>
  <rect class="fil0" x="1485" y="20791" width="1485" height="1485"/>
  <rect class="fil0" x="2970" y="20791" width="1485" height="1485"/>
  <rect class="fil0" y="22276" width="1485" height="1485"/>
  <rect class="fil0" x="1485" y="22276" width="1485" height="1485"/>
  <rect class="fil0" x="2970" y="22276" width="1485" height="1485"/>
  <rect class="fil0" y="25246" width="1485" height="1485"/>
  <rect class="fil0" x="1485" y="25246" width="1485" height="1485"/>
  <rect class="fil0" x="2970" y="25246" width="1485" height="1485"/>
  <rect class="fil0" y="26731" width="1485" height="1485"/>
  <rect class="fil0" x="1485" y="26731" width="1485" height="1485"/>
  <rect class="fil0" x="2970" y="26731" width="1485" height="1485"/>
  <rect class="fil0" y="28216" width="1485" height="1485"/>
  <rect class="fil0" x="1485" y="28216" width="1485" height="1485"/>
  <rect class="fil0" x="2970" y="28216" width="1485" height="1485"/>
  <path id="path59" class="fil1" d="M1030 15676l0 -22 176 0 0 40 -176 0 0 -19zm0 -68l0 -22 176 0 0 40 -176 0 0 -19 0 0zm0 -65l0 -22 176 0 0 43 -176 0 0 -22 0 0zm0 -68l0 -22 176 0 0 43 -176 0 0 -22zm0 -62l0 -22 176 0 0 46 -176 0 0 -25 0 0z"/>
  <path id="path59_0" class="fil2" d="M2516 15676l0 -22 176 0 0 40 -176 0 0 -19zm0 -68l0 -22 176 0 0 40 -176 0 0 -19 0 0zm0 -65l0 -22 176 0 0 43 -176 0 0 -22 0 0zm0 -68l0 -22 176 0 0 43 -176 0 0 -22zm0 -62l0 -22 176 0 0 46 -176 0 0 -25 0 0z"/>
  <path id="path59_1" class="fil3" d="M4001 15676l0 -22 176 0 0 40 -176 0 0 -19zm0 -68l0 -22 176 0 0 40 -176 0 0 -19 0 0zm0 -65l0 -22 176 0 0 43 -176 0 0 -22 0 0zm0 -68l0 -22 176 0 0 43 -176 0 0 -22zm0 -62l0 -22 176 0 0 46 -176 0 0 -25 0 0z"/>
  <path id="path57" class="fil4" d="M634 15676l0 -22 176 0 0 40 -176 0 0 -19zm0 -68l0 -22 176 0 0 40 -176 0 0 -19zm0 -65l0 -22 176 0 0 43 -176 0 0 -22zm0 -68l0 -22 176 0 0 43 -176 0 0 -22z"/>
  <path id="path57_2" class="fil2" d="M2119 15676l0 -22 176 0 0 40 -176 0 0 -19zm0 -68l0 -22 176 0 0 40 -176 0 0 -19zm0 -65l0 -22 176 0 0 43 -176 0 0 -22zm0 -68l0 -22 176 0 0 43 -176 0 0 -22z"/>
  <path id="path57_3" class="fil3" d="M3605 15676l0 -22 176 0 0 40 -176 0 0 -19zm0 -68l0 -22 176 0 0 40 -176 0 0 -19zm0 -65l0 -22 176 0 0 43 -176 0 0 -22zm0 -68l0 -22 176 0 0 43 -176 0 0 -22z"/>
  <path id="path55" class="fil5" d="M832 15676l0 -22 176 0 0 40 -176 0 0 -19zm0 -68l0 -22 176 0 0 40 -176 0 0 -19 0 0z"/>
  <path id="path55_4" class="fil2" d="M2317 15676l0 -22 176 0 0 40 -176 0 0 -19zm0 -68l0 -22 176 0 0 40 -176 0 0 -19 0 0z"/>
  <path id="path55_5" class="fil3" d="M3803 15676l0 -22 176 0 0 40 -176 0 0 -19zm0 -68l0 -22 176 0 0 40 -176 0 0 -19 0 0z"/>
  <path id="path53" class="fil6" d="M439 15874l0 -22 173 0 0 40 -173 0 0 -19zm0 -68l0 -22 173 0 0 40 -173 0 0 -19zm0 -65l0 -22 173 0 0 40 -173 0 0 -19z"/>
  <path id="path53_6" class="fil2" d="M1925 15874l0 -22 173 0 0 40 -173 0 0 -19zm0 -68l0 -22 173 0 0 40 -173 0 0 -19zm0 -65l0 -22 173 0 0 40 -173 0 0 -19z"/>
  <path id="path53_7" class="fil3" d="M3410 15874l0 -22 173 0 0 40 -173 0 0 -19zm0 -68l0 -22 173 0 0 40 -173 0 0 -19zm0 -65l0 -22 173 0 0 40 -173 0 0 -19z"/>
  <path id="path51" class="fil7" d="M241 15676l0 -22 173 0 0 40 -173 0 0 -19zm0 -68l0 -22 173 0 0 40 -173 0 0 -19z"/>
  <path id="path51_8" class="fil2" d="M1727 15676l0 -22 173 0 0 40 -173 0 0 -19zm0 -68l0 -22 173 0 0 40 -173 0 0 -19z"/>
  <path id="path51_9" class="fil3" d="M3212 15676l0 -22 173 0 0 40 -173 0 0 -19zm0 -68l0 -22 173 0 0 40 -173 0 0 -19z"/>
  <path id="path49" class="fil8" d="M1030 15874l0 -22 173 0 0 40 -173 0 0 -19zm0 -68l0 -22 173 0 0 40 -173 0 0 -19zm0 -65l0 -22 173 0 0 40 -173 0 0 -19z"/>
  <path id="path49_10" class="fil2" d="M2516 15874l0 -22 173 0 0 40 -173 0 0 -19zm0 -68l0 -22 173 0 0 40 -173 0 0 -19zm0 -65l0 -22 173 0 0 40 -173 0 0 -19z"/>
  <path id="path49_11" class="fil3" d="M4001 15874l0 -22 173 0 0 40 -173 0 0 -19zm0 -68l0 -22 173 0 0 40 -173 0 0 -19zm0 -65l0 -22 173 0 0 40 -173 0 0 -19z"/>
  <path id="path47" class="fil9" d="M835 15874l0 -22 173 0 0 40 -173 0 0 -19zm0 -68l0 -22 173 0 0 40 -173 0 0 -19 0 0zm0 -65l0 -22 173 0 0 40 -173 0 0 -19 0 0z"/>
  <path id="path47_12" class="fil2" d="M2321 15874l0 -22 173 0 0 40 -173 0 0 -19zm0 -68l0 -22 173 0 0 40 -173 0 0 -19 0 0zm0 -65l0 -22 173 0 0 40 -173 0 0 -19 0 0z"/>
  <path id="path47_13" class="fil3" d="M3806 15874l0 -22 173 0 0 40 -173 0 0 -19zm0 -68l0 -22 173 0 0 40 -173 0 0 -19 0 0zm0 -65l0 -22 173 0 0 40 -173 0 0 -19 0 0z"/>
  <path id="path45" class="fil10" d="M637 15874l0 -22 173 0 0 40 -173 0 0 -19zm0 -68l0 -22 173 0 0 40 -173 0 0 -19zm0 -65l0 -22 173 0 0 40 -173 0 0 -19z"/>
  <path id="path45_14" class="fil2" d="M2123 15874l0 -22 173 0 0 40 -173 0 0 -19zm0 -68l0 -22 173 0 0 40 -173 0 0 -19zm0 -65l0 -22 173 0 0 40 -173 0 0 -19z"/>
  <path id="path45_15" class="fil3" d="M3608 15874l0 -22 173 0 0 40 -173 0 0 -19zm0 -68l0 -22 173 0 0 40 -173 0 0 -19zm0 -65l0 -22 173 0 0 40 -173 0 0 -19z"/>
  <path id="path43" class="fil11" d="M241 15874l0 -22 173 0 0 40 -173 0 0 -19zm0 -68l0 -22 173 0 0 40 -173 0 0 -19zm0 -65l0 -22 173 0 0 40 -173 0 0 -19z"/>
  <path id="path43_16" class="fil2" d="M1727 15874l0 -22 173 0 0 40 -173 0 0 -19zm0 -68l0 -22 173 0 0 40 -173 0 0 -19zm0 -65l0 -22 173 0 0 40 -173 0 0 -19z"/>
  <path id="path43_17" class="fil3" d="M3212 15874l0 -22 173 0 0 40 -173 0 0 -19zm0 -68l0 -22 173 0 0 40 -173 0 0 -19zm0 -65l0 -22 173 0 0 40 -173 0 0 -19z"/>
  <path id="TuneIn_Marquee" class="fil12" d="M1182 8040c0,-3 -3,-3 -3,-3l-22 0c-3,0 -3,3 -3,3l0 80c0,0 0,3 -3,0l-31 -84c0,-3 -3,-3 -6,-3l-25 0c-3,0 -3,3 -6,3l0 145c0,3 3,3 6,3l22 0c3,0 3,-3 3,-3l0 0 0 -74c0,0 0,-3 3,0l31 77c0,3 3,3 6,3l22 0c3,0 3,-3 3,-3l0 0 3 -145zm-124 124c0,-3 -3,-3 -3,-3 0,0 0,0 0,0l-19 0c0,0 -3,0 -3,-3l0 0 0 -90c0,0 0,-3 3,-3 0,0 0,0 0,0l15 0c3,0 3,-3 3,-3l0 0 0 -22c0,-3 -3,-3 -3,-3l-68 0c-3,0 -3,3 -3,3l0 22c0,3 3,3 3,3l15 0c0,0 3,0 3,3l0 0 0 90c0,0 0,3 -3,3 0,0 0,0 0,0l-19 0c-3,0 -3,3 -3,3l0 22c0,3 3,3 3,3 0,0 0,0 0,0l71 0c3,0 3,-3 3,-3l0 0 3 -22 0 0zm-195 -93l-631 0c0,0 -3,0 -3,3l0 300c0,0 0,3 3,3l628 0c0,0 3,0 3,-3l0 -303zm424 -127l0 337c0,9 -6,15 -15,15l-374 0 0 93c0,9 -6,15 -15,15l-668 0c-9,0 -15,-6 -15,-15l0 -340c0,-9 6,-15 15,-15l650 0 0 -93c0,-9 6,-15 15,-15 0,0 0,0 0,0l393 0c9,0 19,9 15,19 3,0 3,0 0,0l0 0zm-520 322l-53 0c0,0 -3,0 -3,-3l0 0 0 -25c0,0 0,-3 0,-3 0,0 0,0 0,0l50 0c3,0 3,-3 3,-3l0 -22c0,-3 -3,-3 -3,-3 0,0 0,0 0,0l-50 0c0,0 -3,0 -3,-3l0 0 0 -28c0,0 0,-3 3,-3 0,0 0,0 0,0l50 0c3,0 3,-3 3,-3l0 0 0 -22c0,-3 -3,-3 -3,-3l-80 0c-3,0 -3,3 -3,3l0 145c0,3 3,3 3,3 0,0 0,0 0,0l80 0c3,0 3,-3 3,-3l0 0 0 -22c6,-3 3,-6 3,-6 0,0 0,0 0,0zm-114 -121l-22 0c-3,0 -3,3 -3,3l0 0 0 84c0,0 0,3 -3,0l-31 -84c0,-3 -3,-3 -6,-3l-25 0c-3,0 -3,3 -3,3l0 0 0 145c0,3 3,3 3,3 0,0 0,0 0,0l22 0c3,0 3,-3 3,-3l0 0 0 -74c0,0 0,-3 3,0l31 77c0,3 3,3 6,3l25 0c3,0 3,-3 3,-3l0 0 0 -145c3,-3 0,-6 -3,-6 0,0 0,0 0,0zm-124 0l-22 0c-3,0 -3,3 -3,3l0 0 0 102c0,9 -9,19 -22,19 -9,0 -19,-6 -22,-15 0,0 0,0 0,0l0 -102c0,-3 -3,-3 -3,-3 0,0 0,0 0,0l-25 0c-3,0 -3,3 -3,3l0 0 0 102c3,28 28,50 56,46 25,-3 46,-22 46,-46l0 -102c0,-3 0,-6 -3,-6l0 0zm-121 3l0 22c0,3 -3,3 -3,3 0,0 0,0 0,0l-28 0c0,0 -3,0 -3,3l0 0 0 114c0,3 -3,3 -3,3 0,0 0,0 0,0l-22 0c-3,0 -3,-3 -3,-3l0 0 0 -114c0,0 0,-3 -3,-3 0,0 0,0 0,0l-28 0c-3,0 -3,-3 -3,-3l0 0 0 -22c0,-3 3,-3 3,-3l90 0c3,0 3,3 3,3l0 0z"/>
  <path id="TuneIn_Marquee_18" class="fil2" d="M2667 8040c0,-3 -3,-3 -3,-3l-22 0c-3,0 -3,3 -3,3l0 80c0,0 0,3 -3,0l-31 -84c0,-3 -3,-3 -6,-3l-25 0c-3,0 -3,3 -6,3l0 145c0,3 3,3 6,3l22 0c3,0 3,-3 3,-3l0 0 0 -74c0,0 0,-3 3,0l31 77c0,3 3,3 6,3l22 0c3,0 3,-3 3,-3l0 0 3 -145zm-124 124c0,-3 -3,-3 -3,-3 0,0 0,0 0,0l-19 0c0,0 -3,0 -3,-3l0 0 0 -90c0,0 0,-3 3,-3 0,0 0,0 0,0l15 0c3,0 3,-3 3,-3l0 0 0 -22c0,-3 -3,-3 -3,-3l-68 0c-3,0 -3,3 -3,3l0 22c0,3 3,3 3,3l15 0c0,0 3,0 3,3l0 0 0 90c0,0 0,3 -3,3 0,0 0,0 0,0l-19 0c-3,0 -3,3 -3,3l0 22c0,3 3,3 3,3 0,0 0,0 0,0l71 0c3,0 3,-3 3,-3l0 0 3 -22 0 0zm-195 -93l-631 0c0,0 -3,0 -3,3l0 300c0,0 0,3 3,3l628 0c0,0 3,0 3,-3l0 -303zm424 -127l0 337c0,9 -6,15 -15,15l-374 0 0 93c0,9 -6,15 -15,15l-668 0c-9,0 -15,-6 -15,-15l0 -340c0,-9 6,-15 15,-15l650 0 0 -93c0,-9 6,-15 15,-15 0,0 0,0 0,0l393 0c9,0 19,9 15,19 3,0 3,0 0,0l0 0zm-520 322l-53 0c0,0 -3,0 -3,-3l0 0 0 -25c0,0 0,-3 0,-3 0,0 0,0 0,0l50 0c3,0 3,-3 3,-3l0 -22c0,-3 -3,-3 -3,-3 0,0 0,0 0,0l-50 0c0,0 -3,0 -3,-3l0 0 0 -28c0,0 0,-3 3,-3 0,0 0,0 0,0l50 0c3,0 3,-3 3,-3l0 0 0 -22c0,-3 -3,-3 -3,-3l-80 0c-3,0 -3,3 -3,3l0 145c0,3 3,3 3,3 0,0 0,0 0,0l80 0c3,0 3,-3 3,-3l0 0 0 -22c6,-3 3,-6 3,-6 0,0 0,0 0,0zm-114 -121l-22 0c-3,0 -3,3 -3,3l0 0 0 84c0,0 0,3 -3,0l-31 -84c0,-3 -3,-3 -6,-3l-25 0c-3,0 -3,3 -3,3l0 0 0 145c0,3 3,3 3,3 0,0 0,0 0,0l22 0c3,0 3,-3 3,-3l0 0 0 -74c0,0 0,-3 3,0l31 77c0,3 3,3 6,3l25 0c3,0 3,-3 3,-3l0 0 0 -145c3,-3 0,-6 -3,-6 0,0 0,0 0,0zm-124 0l-22 0c-3,0 -3,3 -3,3l0 0 0 102c0,9 -9,19 -22,19 -9,0 -19,-6 -22,-15 0,0 0,0 0,0l0 -102c0,-3 -3,-3 -3,-3 0,0 0,0 0,0l-25 0c-3,0 -3,3 -3,3l0 0 0 102c3,28 28,50 56,46 25,-3 46,-22 46,-46l0 -102c0,-3 0,-6 -3,-6l0 0zm-121 3l0 22c0,3 -3,3 -3,3 0,0 0,0 0,0l-28 0c0,0 -3,0 -3,3l0 0 0 114c0,3 -3,3 -3,3 0,0 0,0 0,0l-22 0c-3,0 -3,-3 -3,-3l0 0 0 -114c0,0 0,-3 -3,-3 0,0 0,0 0,0l-28 0c-3,0 -3,-3 -3,-3l0 0 0 -22c0,-3 3,-3 3,-3l90 0c3,0 3,3 3,3l0 0z"/>
  <path id="TuneIn_Marquee_19" class="fil3" d="M4152 8040c0,-3 -3,-3 -3,-3l-22 0c-3,0 -3,3 -3,3l0 80c0,0 0,3 -3,0l-31 -84c0,-3 -3,-3 -6,-3l-25 0c-3,0 -3,3 -6,3l0 145c0,3 3,3 6,3l22 0c3,0 3,-3 3,-3l0 0 0 -74c0,0 0,-3 3,0l31 77c0,3 3,3 6,3l22 0c3,0 3,-3 3,-3l0 0 3 -145zm-124 124c0,-3 -3,-3 -3,-3 0,0 0,0 0,0l-19 0c0,0 -3,0 -3,-3l0 0 0 -90c0,0 0,-3 3,-3 0,0 0,0 0,0l15 0c3,0 3,-3 3,-3l0 0 0 -22c0,-3 -3,-3 -3,-3l-68 0c-3,0 -3,3 -3,3l0 22c0,3 3,3 3,3l15 0c0,0 3,0 3,3l0 0 0 90c0,0 0,3 -3,3 0,0 0,0 0,0l-19 0c-3,0 -3,3 -3,3l0 22c0,3 3,3 3,3 0,0 0,0 0,0l71 0c3,0 3,-3 3,-3l0 0 3 -22 0 0zm-195 -93l-631 0c0,0 -3,0 -3,3l0 300c0,0 0,3 3,3l628 0c0,0 3,0 3,-3l0 -303zm424 -127l0 337c0,9 -6,15 -15,15l-374 0 0 93c0,9 -6,15 -15,15l-668 0c-9,0 -15,-6 -15,-15l0 -340c0,-9 6,-15 15,-15l650 0 0 -93c0,-9 6,-15 15,-15 0,0 0,0 0,0l393 0c9,0 19,9 15,19 3,0 3,0 0,0l0 0zm-520 322l-53 0c0,0 -3,0 -3,-3l0 0 0 -25c0,0 0,-3 0,-3 0,0 0,0 0,0l50 0c3,0 3,-3 3,-3l0 -22c0,-3 -3,-3 -3,-3 0,0 0,0 0,0l-50 0c0,0 -3,0 -3,-3l0 0 0 -28c0,0 0,-3 3,-3 0,0 0,0 0,0l50 0c3,0 3,-3 3,-3l0 0 0 -22c0,-3 -3,-3 -3,-3l-80 0c-3,0 -3,3 -3,3l0 145c0,3 3,3 3,3 0,0 0,0 0,0l80 0c3,0 3,-3 3,-3l0 0 0 -22c6,-3 3,-6 3,-6 0,0 0,0 0,0zm-114 -121l-22 0c-3,0 -3,3 -3,3l0 0 0 84c0,0 0,3 -3,0l-31 -84c0,-3 -3,-3 -6,-3l-25 0c-3,0 -3,3 -3,3l0 0 0 145c0,3 3,3 3,3 0,0 0,0 0,0l22 0c3,0 3,-3 3,-3l0 0 0 -74c0,0 0,-3 3,0l31 77c0,3 3,3 6,3l25 0c3,0 3,-3 3,-3l0 0 0 -145c3,-3 0,-6 -3,-6 0,0 0,0 0,0zm-124 0l-22 0c-3,0 -3,3 -3,3l0 0 0 102c0,9 -9,19 -22,19 -9,0 -19,-6 -22,-15 0,0 0,0 0,0l0 -102c0,-3 -3,-3 -3,-3 0,0 0,0 0,0l-25 0c-3,0 -3,3 -3,3l0 0 0 102c3,28 28,50 56,46 25,-3 46,-22 46,-46l0 -102c0,-3 0,-6 -3,-6l0 0zm-121 3l0 22c0,3 -3,3 -3,3 0,0 0,0 0,0l-28 0c0,0 -3,0 -3,3l0 0 0 114c0,3 -3,3 -3,3 0,0 0,0 0,0l-22 0c-3,0 -3,-3 -3,-3l0 0 0 -114c0,0 0,-3 -3,-3 0,0 0,0 0,0l-28 0c-3,0 -3,-3 -3,-3l0 0 0 -22c0,-3 3,-3 3,-3l90 0c3,0 3,3 3,3l0 0z"/>
  <polygon class="fil13" points="876,6481 1067,6481 1067,6595 876,6595 "/>
  <polygon class="fil2" points="2361,6481 2553,6481 2553,6595 2361,6595 "/>
  <polygon class="fil3" points="3846,6481 4038,6481 4038,6595 3846,6595 "/>
  <polygon class="fil14" points="662,6539 854,6539 854,6598 662,6598 "/>
  <polygon class="fil2" points="2147,6539 2339,6539 2339,6598 2147,6598 "/>
  <polygon class="fil3" points="3633,6539 3824,6539 3824,6598 3633,6598 "/>
  <polygon class="fil15" points="449,6505 640,6505 640,6595 449,6595 "/>
  <polygon class="fil2" points="1934,6505 2126,6505 2126,6595 1934,6595 "/>
  <polygon class="fil3" points="3419,6505 3611,6505 3611,6595 3419,6595 "/>
  <polygon class="fil16" points="232,6564 424,6564 424,6595 232,6595 "/>
  <polygon class="fil2" points="1717,6564 1909,6564 1909,6595 1717,6595 "/>
  <polygon class="fil3" points="3202,6564 3394,6564 3394,6595 3202,6595 "/>
  <polygon class="fil17" points="1089,6549 1281,6549 1281,6595 1089,6595 "/>
  <polygon class="fil2" points="2574,6549 2766,6549 2766,6595 2574,6595 "/>
  <polygon class="fil3" points="4060,6549 4251,6549 4251,6595 4060,6595 "/>
  <polygon class="fil13" points="876,6818 1067,6818 1067,6880 876,6880 "/>
  <polygon class="fil2" points="2361,6818 2553,6818 2553,6880 2361,6880 "/>
  <polygon class="fil3" points="3846,6818 4038,6818 4038,6880 3846,6880 "/>
  <polygon class="fil14" points="662,6818 854,6818 854,6923 662,6923 "/>
  <polygon class="fil2" points="2147,6818 2339,6818 2339,6923 2147,6923 "/>
  <polygon class="fil3" points="3633,6818 3824,6818 3824,6923 3633,6923 "/>
  <polygon class="fil15" points="449,6818 640,6818 640,6880 449,6880 "/>
  <polygon class="fil2" points="1934,6818 2126,6818 2126,6880 1934,6880 "/>
  <polygon class="fil3" points="3419,6818 3611,6818 3611,6880 3419,6880 "/>
  <polygon class="fil16" points="232,6818 424,6818 424,6904 232,6904 "/>
  <polygon class="fil2" points="1717,6818 1909,6818 1909,6904 1717,6904 "/>
  <polygon class="fil3" points="3202,6818 3394,6818 3394,6904 3202,6904 "/>
  <polygon class="fil17" points="1089,6818 1281,6818 1281,6852 1089,6852 "/>
  <polygon class="fil2" points="2574,6818 2766,6818 2766,6852 2574,6852 "/>
  <polygon class="fil3" points="4060,6818 4251,6818 4251,6852 4060,6852 "/>
  <path class="fil18" d="M405 6781l0 -114 -43 0 0 -34 127 0 0 34 -43 0 0 114 -40 0zm-114 0c-19,0 -40,-6 -56,-15l0 0 12 -34 3 3c12,9 28,15 46,15 19,0 22,-6 22,-9 0,-3 -12,-12 -28,-15 -22,-6 -50,-12 -50,-43 0,-31 22,-46 59,-46 22,0 43,9 59,28l0 0 -31 19 0 0c-6,-9 -19,-15 -28,-15 -15,0 -15,6 -15,9 0,9 12,12 25,15 22,6 50,12 50,46 0,34 -25,43 -68,43l0 0 0 0zm220 0l0 -145 40 0 0 145 -40 0zm102 0l0 -114 -43 0 0 -34 127 0 0 34 -43 0 0 114 -40 0zm337 0l0 -56 -56 0 0 56 -40 0 0 -145 40 0 0 59 56 0 0 -59 40 0 0 145 -40 0zm-173 0c-37,6 -74,-22 -77,-59 0,-6 0,-9 0,-15 -3,-40 28,-71 65,-74 3,0 9,0 12,0 50,0 59,28 59,28l0 0 -31 19 0 0c-6,-9 -19,-15 -28,-15 -25,0 -37,12 -37,40 0,28 12,43 37,43l0 0c12,0 22,-6 28,-15l0 0 31 19 0 0c3,0 -9,31 -59,31l0 0zm232 0l0 -145 114 0 0 31 -77 0 0 28 46 0 0 31 -46 0 0 28 77 0 0 31 -114 -3zm204 -74l-28 0 0 -40 28 0c15,0 25,6 25,19 0,12 -9,22 -25,22zm37 22c15,-9 28,-25 25,-43 0,-34 -22,-50 -62,-50l-68 0 0 145 40 0 0 -43 25 0 25 43 46 0 -31 -53 0 0z"/>
  <path class="fil2" d="M1891 6781l0 -114 -43 0 0 -34 127 0 0 34 -43 0 0 114 -40 0zm-114 0c-19,0 -40,-6 -56,-15l0 0 12 -34 3 3c12,9 28,15 46,15 19,0 22,-6 22,-9 0,-3 -12,-12 -28,-15 -22,-6 -50,-12 -50,-43 0,-31 22,-46 59,-46 22,0 43,9 59,28l0 0 -31 19 0 0c-6,-9 -19,-15 -28,-15 -15,0 -15,6 -15,9 0,9 12,12 25,15 22,6 50,12 50,46 0,34 -25,43 -68,43l0 0 0 0zm220 0l0 -145 40 0 0 145 -40 0zm102 0l0 -114 -43 0 0 -34 127 0 0 34 -43 0 0 114 -40 0zm337 0l0 -56 -56 0 0 56 -40 0 0 -145 40 0 0 59 56 0 0 -59 40 0 0 145 -40 0zm-173 0c-37,6 -74,-22 -77,-59 0,-6 0,-9 0,-15 -3,-40 28,-71 65,-74 3,0 9,0 12,0 50,0 59,28 59,28l0 0 -31 19 0 0c-6,-9 -19,-15 -28,-15 -25,0 -37,12 -37,40 0,28 12,43 37,43l0 0c12,0 22,-6 28,-15l0 0 31 19 0 0c3,0 -9,31 -59,31l0 0zm232 0l0 -145 114 0 0 31 -77 0 0 28 46 0 0 31 -46 0 0 28 77 0 0 31 -114 -3zm204 -74l-28 0 0 -40 28 0c15,0 25,6 25,19 0,12 -9,22 -25,22zm37 22c15,-9 28,-25 25,-43 0,-34 -22,-50 -62,-50l-68 0 0 145 40 0 0 -43 25 0 25 43 46 0 -31 -53 0 0z"/>
  <path class="fil3" d="M3376 6781l0 -114 -43 0 0 -34 127 0 0 34 -43 0 0 114 -40 0zm-114 0c-19,0 -40,-6 -56,-15l0 0 12 -34 3 3c12,9 28,15 46,15 19,0 22,-6 22,-9 0,-3 -12,-12 -28,-15 -22,-6 -50,-12 -50,-43 0,-31 22,-46 59,-46 22,0 43,9 59,28l0 0 -31 19 0 0c-6,-9 -19,-15 -28,-15 -15,0 -15,6 -15,9 0,9 12,12 25,15 22,6 50,12 50,46 0,34 -25,43 -68,43l0 0 0 0zm220 0l0 -145 40 0 0 145 -40 0zm102 0l0 -114 -43 0 0 -34 127 0 0 34 -43 0 0 114 -40 0zm337 0l0 -56 -56 0 0 56 -40 0 0 -145 40 0 0 59 56 0 0 -59 40 0 0 145 -40 0zm-173 0c-37,6 -74,-22 -77,-59 0,-6 0,-9 0,-15 -3,-40 28,-71 65,-74 3,0 9,0 12,0 50,0 59,28 59,28l0 0 -31 19 0 0c-6,-9 -19,-15 -28,-15 -25,0 -37,12 -37,40 0,28 12,43 37,43l0 0c12,0 22,-6 28,-15l0 0 31 19 0 0c3,0 -9,31 -59,31l0 0zm232 0l0 -145 114 0 0 31 -77 0 0 28 46 0 0 31 -46 0 0 28 77 0 0 31 -114 -3zm204 -74l-28 0 0 -40 28 0c15,0 25,6 25,19 0,12 -9,22 -25,22zm37 22c15,-9 28,-25 25,-43 0,-34 -22,-50 -62,-50l-68 0 0 145 40 0 0 -43 25 0 25 43 46 0 -31 -53 0 0z"/>
  <path class="fil19" d="M727 9318c-204,0 -371,167 -371,371 0,204 167,371 371,371 204,0 371,-167 371,-371 0,-204 -167,-371 -371,-371l0 0zm170 532c-6,9 -22,12 -31,6 -87,-53 -195,-65 -325,-34 -12,3 -25,-6 -28,-19 -3,-12 6,-25 19,-28 0,0 0,0 0,0 142,-31 263,-19 359,40 9,9 12,25 6,34zm46 -99c-9,12 -25,19 -40,9 -111,-62 -244,-77 -371,-43 -15,3 -31,-3 -37,-19 0,0 0,0 0,0 -3,-15 3,-31 19,-37 139,-40 291,-22 415,50 15,9 22,25 15,40l0 0zm3 -105c-121,-71 -316,-77 -430,-43 -19,3 -37,-6 -43,-25 -3,-19 6,-34 22,-40 130,-40 347,-31 486,50 19,9 25,28 15,46 -9,19 -28,25 -46,15 0,-3 -3,-3 -3,-3z"/>
  <path class="fil2" d="M2212 9318c-204,0 -371,167 -371,371 0,204 167,371 371,371 204,0 371,-167 371,-371 0,-204 -167,-371 -371,-371l0 0zm170 532c-6,9 -22,12 -31,6 -87,-53 -195,-65 -325,-34 -12,3 -25,-6 -28,-19 -3,-12 6,-25 19,-28 0,0 0,0 0,0 142,-31 263,-19 359,40 9,9 12,25 6,34zm46 -99c-9,12 -25,19 -40,9 -111,-62 -244,-77 -371,-43 -15,3 -31,-3 -37,-19 0,0 0,0 0,0 -3,-15 3,-31 19,-37 139,-40 291,-22 415,50 15,9 22,25 15,40l0 0zm3 -105c-121,-71 -316,-77 -430,-43 -19,3 -37,-6 -43,-25 -3,-19 6,-34 22,-40 130,-40 347,-31 486,50 19,9 25,28 15,46 -9,19 -28,25 -46,15 0,-3 -3,-3 -3,-3z"/>
  <path class="fil3" d="M3697 9318c-204,0 -371,167 -371,371 0,204 167,371 371,371 204,0 371,-167 371,-371 0,-204 -167,-371 -371,-371l0 0zm170 532c-6,9 -22,12 -31,6 -87,-53 -195,-65 -325,-34 -12,3 -25,-6 -28,-19 -3,-12 6,-25 19,-28 0,0 0,0 0,0 142,-31 263,-19 359,40 9,9 12,25 6,34zm46 -99c-9,12 -25,19 -40,9 -111,-62 -244,-77 -371,-43 -15,3 -31,-3 -37,-19 0,0 0,0 0,0 -3,-15 3,-31 19,-37 139,-40 291,-22 415,50 15,9 22,25 15,40l0 0zm3 -105c-121,-71 -316,-77 -430,-43 -19,3 -37,-6 -43,-25 -3,-19 6,-34 22,-40 130,-40 347,-31 486,50 19,9 25,28 15,46 -9,19 -28,25 -46,15 0,-3 -3,-3 -3,-3z"/>
  <circle class="fil20" cx="489" cy="12622" r="74"/>
  <circle class="fil2" cx="1974" cy="12622" r="74"/>
  <circle class="fil3" cx="3459" cy="12622" r="74"/>
  <circle class="fil20" cx="746" cy="12622" r="74"/>
  <circle class="fil2" cx="2231" cy="12622" r="74"/>
  <circle class="fil3" cx="3716" cy="12622" r="74"/>
  <circle class="fil20" cx="1002" cy="12622" r="74"/>
  <circle class="fil2" cx="2488" cy="12622" r="74"/>
  <circle class="fil3" cx="3973" cy="12622" r="74"/>
  <path class="fil21" d="M452 5172l0 53c0,28 -22,50 -50,50 -28,0 -50,-22 -50,-50 0,0 0,0 0,0 0,-3 0,-3 0,-6l0 -43c0,-3 0,-3 0,-6 0,-28 22,-50 50,-50 28,0 50,25 50,53 0,-3 0,-3 0,0l0 0z"/>
  <path class="fil2" d="M1937 5172l0 53c0,28 -22,50 -50,50 -28,0 -50,-22 -50,-50 0,0 0,0 0,0 0,-3 0,-3 0,-6l0 -43c0,-3 0,-3 0,-6 0,-28 22,-50 50,-50 28,0 50,25 50,53 0,-3 0,-3 0,0l0 0z"/>
  <path class="fil3" d="M3422 5172l0 53c0,28 -22,50 -50,50 -28,0 -50,-22 -50,-50 0,0 0,0 0,0 0,-3 0,-3 0,-6l0 -43c0,-3 0,-3 0,-6 0,-28 22,-50 50,-50 28,0 50,25 50,53 0,-3 0,-3 0,0l0 0z"/>
  <path class="fil22" d="M1136 5172l0 53c3,28 -19,50 -43,53 -28,3 -50,-19 -53,-43 0,-3 0,-6 0,-9 0,-3 0,-3 0,-6l0 -43c0,-3 0,-3 0,-6 -3,-28 19,-50 43,-53 28,-3 50,19 53,43 0,6 0,9 0,12l0 0z"/>
  <path class="fil2" d="M2621 5172l0 53c3,28 -19,50 -43,53 -28,3 -50,-19 -53,-43 0,-3 0,-6 0,-9 0,-3 0,-3 0,-6l0 -43c0,-3 0,-3 0,-6 -3,-28 19,-50 43,-53 28,-3 50,19 53,43 0,6 0,9 0,12l0 0z"/>
  <path class="fil3" d="M4106 5172l0 53c3,28 -19,50 -43,53 -28,3 -50,-19 -53,-43 0,-3 0,-6 0,-9 0,-3 0,-3 0,-6l0 -43c0,-3 0,-3 0,-6 -3,-28 19,-50 43,-53 28,-3 50,19 53,43 0,6 0,9 0,12l0 0z"/>
  <path class="fil23" d="M622 5376c0,3 0,3 0,6 0,28 -22,50 -50,50 -28,0 -50,-22 -50,-50l0 -53c0,-28 22,-50 50,-50 28,0 50,22 50,50 0,3 0,3 0,6l0 40z"/>
  <path class="fil2" d="M2107 5376c0,3 0,3 0,6 0,28 -22,50 -50,50 -28,0 -50,-22 -50,-50l0 -53c0,-28 22,-50 50,-50 28,0 50,22 50,50 0,3 0,3 0,6l0 40z"/>
  <path class="fil3" d="M3592 5376c0,3 0,3 0,6 0,28 -22,50 -50,50 -28,0 -50,-22 -50,-50l0 -53c0,-28 22,-50 50,-50 28,0 50,22 50,50 0,3 0,3 0,6l0 40z"/>
  <path class="fil23" d="M622 5178c0,3 0,3 0,6 -3,28 -25,46 -53,43 -25,-3 -43,-22 -43,-43l0 0 0 -173c0,-28 22,-50 50,-50 28,0 50,22 50,50 0,3 0,3 0,6l-3 161z"/>
  <path class="fil2" d="M2107 5178c0,3 0,3 0,6 -3,28 -25,46 -53,43 -25,-3 -43,-22 -43,-43l0 0 0 -173c0,-28 22,-50 50,-50 28,0 50,22 50,50 0,3 0,3 0,6l-3 161z"/>
  <path class="fil3" d="M3592 5178c0,3 0,3 0,6 -3,28 -25,46 -53,43 -25,-3 -43,-22 -43,-43l0 0 0 -173c0,-28 22,-50 50,-50 28,0 50,22 50,50 0,3 0,3 0,6l-3 161z"/>
  <polygon class="fil23" points="523,5184 523,5184 523,5184 "/>
  <polygon class="fil2" points="2008,5184 2008,5184 2008,5184 "/>
  <polygon class="fil3" points="3493,5184 3493,5184 3493,5184 "/>
  <path class="fil24" d="M965 5011l0 53c3,28 -19,50 -43,53 -25,3 -50,-19 -53,-43 0,-3 0,-6 0,-9 0,-3 0,-3 0,-6l0 -43c0,-3 0,-3 0,-6 -3,-28 19,-50 43,-53 25,-3 50,19 53,43 0,6 0,9 0,12l0 0z"/>
  <path class="fil2" d="M2451 5011l0 53c3,28 -19,50 -43,53 -25,3 -50,-19 -53,-43 0,-3 0,-6 0,-9 0,-3 0,-3 0,-6l0 -43c0,-3 0,-3 0,-6 -3,-28 19,-50 43,-53 25,-3 50,19 53,43 0,6 0,9 0,12l0 0z"/>
  <path class="fil3" d="M3936 5011l0 53c3,28 -19,50 -43,53 -25,3 -50,-19 -53,-43 0,-3 0,-6 0,-9 0,-3 0,-3 0,-6l0 -43c0,-3 0,-3 0,-6 -3,-28 19,-50 43,-53 25,-3 50,19 53,43 0,6 0,9 0,12l0 0z"/>
  <path class="fil25" d="M792 4903c0,3 0,3 0,6 0,28 -22,50 -50,50 -28,0 -50,-22 -50,-50l0 -53c0,-28 22,-50 50,-50 28,0 50,22 50,50 0,3 0,3 0,6l0 40z"/>
  <path class="fil2" d="M2277 4903c0,3 0,3 0,6 0,28 -22,50 -50,50 -28,0 -50,-22 -50,-50l0 -53c0,-28 22,-50 50,-50 28,0 50,22 50,50 0,3 0,3 0,6l0 40z"/>
  <path class="fil3" d="M3762 4903c0,3 0,3 0,6 0,28 -22,50 -50,50 -28,0 -50,-22 -50,-50l0 -53c0,-28 22,-50 50,-50 28,0 50,22 50,50 0,3 0,3 0,6l0 40z"/>
  <path class="fil25" d="M792 5531c0,3 0,3 0,6 0,28 -22,50 -50,50 -28,0 -50,-22 -50,-50l0 -53c0,-28 22,-50 50,-50 28,0 50,22 50,50 0,3 0,3 0,6l0 40z"/>
  <path class="fil2" d="M2277 5531c0,3 0,3 0,6 0,28 -22,50 -50,50 -28,0 -50,-22 -50,-50l0 -53c0,-28 22,-50 50,-50 28,0 50,22 50,50 0,3 0,3 0,6l0 40z"/>
  <path class="fil3" d="M3762 5531c0,3 0,3 0,6 0,28 -22,50 -50,50 -28,0 -50,-22 -50,-50l0 -53c0,-28 22,-50 50,-50 28,0 50,22 50,50 0,3 0,3 0,6l0 40z"/>
  <path class="fil24" d="M965 5209l0 173c3,28 -19,50 -43,53 -25,3 -50,-19 -53,-43 0,-3 0,-6 0,-9 0,-3 0,-3 0,-6l0 -161c0,-3 0,-3 0,-6 -3,-28 19,-50 43,-53 25,-3 50,19 53,43 0,6 0,9 0,9l0 0z"/>
  <path class="fil2" d="M2451 5209l0 173c3,28 -19,50 -43,53 -25,3 -50,-19 -53,-43 0,-3 0,-6 0,-9 0,-3 0,-3 0,-6l0 -161c0,-3 0,-3 0,-6 -3,-28 19,-50 43,-53 25,-3 50,19 53,43 0,6 0,9 0,9l0 0z"/>
  <path class="fil3" d="M3936 5209l0 173c3,28 -19,50 -43,53 -25,3 -50,-19 -53,-43 0,-3 0,-6 0,-9 0,-3 0,-3 0,-6l0 -161c0,-3 0,-3 0,-6 -3,-28 19,-50 43,-53 25,-3 50,19 53,43 0,6 0,9 0,9l0 0z"/>
  <path class="fil25" d="M792 5333c0,3 0,3 0,6 0,28 -22,50 -50,50 -28,0 -50,-22 -50,-50l0 -282c0,-28 22,-50 50,-50 28,0 50,22 50,50 0,3 0,3 0,6l0 269z"/>
  <path class="fil2" d="M2277 5333c0,3 0,3 0,6 0,28 -22,50 -50,50 -28,0 -50,-22 -50,-50l0 -282c0,-28 22,-50 50,-50 28,0 50,22 50,50 0,3 0,3 0,6l0 269z"/>
  <path class="fil3" d="M3762 5333c0,3 0,3 0,6 0,28 -22,50 -50,50 -28,0 -50,-22 -50,-50l0 -282c0,-28 22,-50 50,-50 28,0 50,22 50,50 0,3 0,3 0,6l0 269z"/>
  <path class="fil26" d="M1120 2322c0,28 -25,53 -53,53l0 0c-28,0 -53,-25 -53,-53l0 0 0 -232c0,-28 25,-53 53,-53l0 0 0 0c28,0 53,25 53,53l0 232z"/>
  <path class="fil2" d="M2605 2322c0,28 -25,53 -53,53l0 0c-28,0 -53,-25 -53,-53l0 0 0 -232c0,-28 25,-53 53,-53l0 0 0 0c28,0 53,25 53,53l0 232z"/>
  <path class="fil3" d="M4090 2322c0,28 -25,53 -53,53l0 0c-28,0 -53,-25 -53,-53l0 0 0 -232c0,-28 25,-53 53,-53l0 0 0 0c28,0 53,25 53,53l0 232z"/>
  <path class="fil26" d="M473 2322c0,28 -25,53 -53,53 0,0 0,0 0,0l0 0c-28,0 -53,-25 -53,-53l0 -232c0,-28 25,-53 53,-53l0 0c28,0 53,25 53,53l0 0 0 232z"/>
  <path class="fil2" d="M1959 2322c0,28 -25,53 -53,53 0,0 0,0 0,0l0 0c-28,0 -53,-25 -53,-53l0 -232c0,-28 25,-53 53,-53l0 0c28,0 53,25 53,53l0 0 0 232z"/>
  <path class="fil3" d="M3444 2322c0,28 -25,53 -53,53 0,0 0,0 0,0l0 0c-28,0 -53,-25 -53,-53l0 -232c0,-28 25,-53 53,-53l0 0c28,0 53,25 53,53l0 0 0 232z"/>
  <path class="fil26" d="M863 1843l43 -59 0 0c0,-3 0,-3 -3,-3 -3,-3 -6,-3 -6,0l-43 62c-34,-12 -71,-19 -108,-19 -37,0 -74,6 -108,19l-43 -62c0,0 -3,0 -6,0 -3,0 -3,3 -3,3l0 0 40 59c-71,34 -121,105 -124,186l486 0c-6,-84 -53,-152 -124,-186zm-226 105c-15,0 -28,-12 -28,-28 0,-15 12,-28 28,-28 15,0 28,12 28,28 3,15 -9,28 -28,28 0,0 0,0 0,0zm213 0c-15,0 -28,-12 -28,-28 0,-15 12,-28 28,-28 15,0 28,12 28,28l0 0c3,15 -12,28 -28,28z"/>
  <path class="fil2" d="M2348 1843l43 -59 0 0c0,-3 0,-3 -3,-3 -3,-3 -6,-3 -6,0l-43 62c-34,-12 -71,-19 -108,-19 -37,0 -74,6 -108,19l-43 -62c0,0 -3,0 -6,0 -3,0 -3,3 -3,3l0 0 40 59c-71,34 -121,105 -124,186l486 0c-6,-84 -53,-152 -124,-186zm-226 105c-15,0 -28,-12 -28,-28 0,-15 12,-28 28,-28 15,0 28,12 28,28 3,15 -9,28 -28,28 0,0 0,0 0,0zm213 0c-15,0 -28,-12 -28,-28 0,-15 12,-28 28,-28 15,0 28,12 28,28l0 0c3,15 -12,28 -28,28z"/>
  <path class="fil3" d="M3834 1843l43 -59 0 0c0,-3 0,-3 -3,-3 -3,-3 -6,-3 -6,0l-43 62c-34,-12 -71,-19 -108,-19 -37,0 -74,6 -108,19l-43 -62c0,0 -3,0 -6,0 -3,0 -3,3 -3,3l0 0 40 59c-71,34 -121,105 -124,186l486 0c-6,-84 -53,-152 -124,-186zm-226 105c-15,0 -28,-12 -28,-28 0,-15 12,-28 28,-28 15,0 28,12 28,28 3,15 -9,28 -28,28 0,0 0,0 0,0zm213 0c-15,0 -28,-12 -28,-28 0,-15 12,-28 28,-28 15,0 28,12 28,28l0 0c3,15 -12,28 -28,28z"/>
  <path class="fil27" d="M628 11348c0,37 -31,65 -65,65 -37,0 -65,-31 -65,-65 0,-34 31,-65 65,-65 0,0 0,0 0,0 37,0 65,28 65,65 0,0 0,0 0,0zm377 65c0,-152 -68,-297 -186,-396 -90,-74 -204,-118 -322,-118l0 118c139,0 269,71 343,192 37,62 56,133 56,204l108 0zm-179 0c0,-99 -46,-192 -121,-254 -59,-46 -130,-74 -207,-74l0 99c127,0 229,102 229,229 0,0 0,0 0,0l99 0 0 0z"/>
  <path class="fil2" d="M2113 11348c0,37 -31,65 -65,65 -37,0 -65,-31 -65,-65 0,-34 31,-65 65,-65 0,0 0,0 0,0 37,0 65,28 65,65 0,0 0,0 0,0zm377 65c0,-152 -68,-297 -186,-396 -90,-74 -204,-118 -322,-118l0 118c139,0 269,71 343,192 37,62 56,133 56,204l108 0zm-179 0c0,-99 -46,-192 -121,-254 -59,-46 -130,-74 -207,-74l0 99c127,0 229,102 229,229 0,0 0,0 0,0l99 0 0 0z"/>
  <path class="fil3" d="M3598 11348c0,37 -31,65 -65,65 -37,0 -65,-31 -65,-65 0,-34 31,-65 65,-65 0,0 0,0 0,0 37,0 65,28 65,65 0,0 0,0 0,0zm377 65c0,-152 -68,-297 -186,-396 -90,-74 -204,-118 -322,-118l0 118c139,0 269,71 343,192 37,62 56,133 56,204l108 0zm-179 0c0,-99 -46,-192 -121,-254 -59,-46 -130,-74 -207,-74l0 99c127,0 229,102 229,229 0,0 0,0 0,0l99 0 0 0z"/>
  <path class="fil28" d="M910 13863c-71,0 -136,34 -176,93 -40,-59 -105,-93 -176,-93 -118,0 -210,93 -210,210 0,0 0,0 0,0 0,74 46,127 96,176l192 183c6,6 15,6 22,0 3,-3 3,-6 3,-9l0 -142c3,-40 37,-71 77,-68 37,3 68,31 68,68l0 0 0 139c0,9 6,15 15,15 0,0 0,0 0,0 3,0 9,-3 12,-3l192 -183c50,-50 96,-102 96,-176 3,-118 -90,-210 -210,-210 3,-3 3,-3 0,0l0 0zm-368 374c-3,3 -6,6 -12,6 -3,0 -6,0 -9,-3 -65,-56 -96,-114 -96,-173l0 0c0,-53 28,-105 71,-136 6,-3 15,-3 22,3 3,6 3,15 -3,22l0 0c-34,25 -56,65 -59,111l0 0c0,50 28,102 87,152 3,3 6,12 0,19 0,0 0,0 0,0l0 0zm93 -56c-3,3 -6,6 -12,6 -3,0 -6,0 -6,-3 -43,-25 -71,-68 -71,-118l0 0c0,-43 25,-84 62,-105 6,-3 15,0 19,6l0 0c3,6 0,15 -6,19l0 0c-28,15 -46,46 -46,77 0,40 22,74 56,93 9,9 12,19 6,25l0 0zm99 -37c-34,0 -65,-28 -65,-65 0,-34 28,-65 65,-65 34,0 62,28 65,62l0 0c0,37 -31,68 -65,68l0 0zm118 43c-3,0 -3,3 -6,3 -9,0 -15,-6 -15,-15 0,-6 3,-9 6,-12l0 0c34,-19 56,-53 56,-93 0,-34 -19,-62 -46,-77 -6,-3 -9,-12 -6,-19 3,-6 12,-9 19,-6l3 0c37,22 62,62 62,105l0 0c-3,43 -28,90 -71,114l0 0zm192 -124c0,59 -31,118 -96,173 -3,3 -6,3 -9,3 -3,0 -9,-3 -12,-6 -6,-6 -6,-15 0,-22 0,0 0,0 0,0 56,-50 87,-102 87,-152l0 0c0,-43 -22,-84 -59,-111 -6,-6 -9,-12 -3,-22 3,-6 12,-9 19,-3 43,34 71,84 74,139l0 0z"/>
  <path class="fil2" d="M2395 13863c-71,0 -136,34 -176,93 -40,-59 -105,-93 -176,-93 -118,0 -210,93 -210,210 0,0 0,0 0,0 0,74 46,127 96,176l192 183c6,6 15,6 22,0 3,-3 3,-6 3,-9l0 -142c3,-40 37,-71 77,-68 37,3 68,31 68,68l0 0 0 139c0,9 6,15 15,15 0,0 0,0 0,0 3,0 9,-3 12,-3l192 -183c50,-50 96,-102 96,-176 3,-118 -90,-210 -210,-210 3,-3 3,-3 0,0l0 0zm-368 374c-3,3 -6,6 -12,6 -3,0 -6,0 -9,-3 -65,-56 -96,-114 -96,-173l0 0c0,-53 28,-105 71,-136 6,-3 15,-3 22,3 3,6 3,15 -3,22l0 0c-34,25 -56,65 -59,111l0 0c0,50 28,102 87,152 3,3 6,12 0,19 0,0 0,0 0,0l0 0zm93 -56c-3,3 -6,6 -12,6 -3,0 -6,0 -6,-3 -43,-25 -71,-68 -71,-118l0 0c0,-43 25,-84 62,-105 6,-3 15,0 19,6l0 0c3,6 0,15 -6,19l0 0c-28,15 -46,46 -46,77 0,40 22,74 56,93 9,9 12,19 6,25l0 0zm99 -37c-34,0 -65,-28 -65,-65 0,-34 28,-65 65,-65 34,0 62,28 65,62l0 0c0,37 -31,68 -65,68l0 0zm118 43c-3,0 -3,3 -6,3 -9,0 -15,-6 -15,-15 0,-6 3,-9 6,-12l0 0c34,-19 56,-53 56,-93 0,-34 -19,-62 -46,-77 -6,-3 -9,-12 -6,-19 3,-6 12,-9 19,-6l3 0c37,22 62,62 62,105l0 0c-3,43 -28,90 -71,114l0 0zm192 -124c0,59 -31,118 -96,173 -3,3 -6,3 -9,3 -3,0 -9,-3 -12,-6 -6,-6 -6,-15 0,-22 0,0 0,0 0,0 56,-50 87,-102 87,-152l0 0c0,-43 -22,-84 -59,-111 -6,-6 -9,-12 -3,-22 3,-6 12,-9 19,-3 43,34 71,84 74,139l0 0z"/>
  <path class="fil3" d="M3880 13863c-71,0 -136,34 -176,93 -40,-59 -105,-93 -176,-93 -118,0 -210,93 -210,210 0,0 0,0 0,0 0,74 46,127 96,176l192 183c6,6 15,6 22,0 3,-3 3,-6 3,-9l0 -142c3,-40 37,-71 77,-68 37,3 68,31 68,68l0 0 0 139c0,9 6,15 15,15 0,0 0,0 0,0 3,0 9,-3 12,-3l192 -183c50,-50 96,-102 96,-176 3,-118 -90,-210 -210,-210 3,-3 3,-3 0,0l0 0zm-368 374c-3,3 -6,6 -12,6 -3,0 -6,0 -9,-3 -65,-56 -96,-114 -96,-173l0 0c0,-53 28,-105 71,-136 6,-3 15,-3 22,3 3,6 3,15 -3,22l0 0c-34,25 -56,65 -59,111l0 0c0,50 28,102 87,152 3,3 6,12 0,19 0,0 0,0 0,0l0 0zm93 -56c-3,3 -6,6 -12,6 -3,0 -6,0 -6,-3 -43,-25 -71,-68 -71,-118l0 0c0,-43 25,-84 62,-105 6,-3 15,0 19,6l0 0c3,6 0,15 -6,19l0 0c-28,15 -46,46 -46,77 0,40 22,74 56,93 9,9 12,19 6,25l0 0zm99 -37c-34,0 -65,-28 -65,-65 0,-34 28,-65 65,-65 34,0 62,28 65,62l0 0c0,37 -31,68 -65,68l0 0zm118 43c-3,0 -3,3 -6,3 -9,0 -15,-6 -15,-15 0,-6 3,-9 6,-12l0 0c34,-19 56,-53 56,-93 0,-34 -19,-62 -46,-77 -6,-3 -9,-12 -6,-19 3,-6 12,-9 19,-6l3 0c37,22 62,62 62,105l0 0c-3,43 -28,90 -71,114l0 0zm192 -124c0,59 -31,118 -96,173 -3,3 -6,3 -9,3 -3,0 -9,-3 -12,-6 -6,-6 -6,-15 0,-22 0,0 0,0 0,0 56,-50 87,-102 87,-152l0 0c0,-43 -22,-84 -59,-111 -6,-6 -9,-12 -3,-22 3,-6 12,-9 19,-3 43,34 71,84 74,139l0 0z"/>
  <path class="fil29" d="M1080 16963c-19,-139 -136,-244 -278,-241l-350 0 0 718 179 0c25,0 46,-19 46,-46l0 0 0 -133 136 0c74,0 149,-31 198,-87 50,-62 74,-136 68,-210z"/>
  <path class="fil2" d="M2565 16963c-19,-139 -136,-244 -278,-241l-350 0 0 718 179 0c25,0 46,-19 46,-46l0 0 0 -133 136 0c74,0 149,-31 198,-87 50,-62 74,-136 68,-210z"/>
  <path class="fil3" d="M4050 16963c-19,-139 -136,-244 -278,-241l-350 0 0 718 179 0c25,0 46,-19 46,-46l0 0 0 -133 136 0c74,0 149,-31 198,-87 50,-62 74,-136 68,-210z"/>
  <path class="fil30" d="M1071 19838c-25,12 -53,19 -80,22 28,-19 53,-46 62,-77 -28,15 -59,28 -90,34 -53,-56 -139,-59 -198,-6 -37,34 -53,87 -40,133 -111,-6 -217,-59 -288,-145 -37,65 -19,145 43,186 -22,0 -43,-6 -62,-19l0 0c0,65 46,124 111,136 -22,6 -40,6 -62,3 19,56 71,96 130,96 -50,40 -111,59 -173,59 -12,0 -22,0 -34,-3 186,118 430,62 548,-124 40,-62 59,-133 62,-207l0 -19c31,-15 53,-40 71,-68z"/>
  <path class="fil2" d="M2556 19838c-25,12 -53,19 -80,22 28,-19 53,-46 62,-77 -28,15 -59,28 -90,34 -53,-56 -139,-59 -198,-6 -37,34 -53,87 -40,133 -111,-6 -217,-59 -288,-145 -37,65 -19,145 43,186 -22,0 -43,-6 -62,-19l0 0c0,65 46,124 111,136 -22,6 -40,6 -62,3 19,56 71,96 130,96 -50,40 -111,59 -173,59 -12,0 -22,0 -34,-3 186,118 430,62 548,-124 40,-62 59,-133 62,-207l0 -19c31,-15 53,-40 71,-68z"/>
  <path class="fil3" d="M4041 19838c-25,12 -53,19 -80,22 28,-19 53,-46 62,-77 -28,15 -59,28 -90,34 -53,-56 -139,-59 -198,-6 -37,34 -53,87 -40,133 -111,-6 -217,-59 -288,-145 -37,65 -19,145 43,186 -22,0 -43,-6 -62,-19l0 0c0,65 46,124 111,136 -22,6 -40,6 -62,3 19,56 71,96 130,96 -50,40 -111,59 -173,59 -12,0 -22,0 -34,-3 186,118 430,62 548,-124 40,-62 59,-133 62,-207l0 -19c31,-15 53,-40 71,-68z"/>
  <path class="fil31" d="M575 21447l71 0 0 -68c-3,-37 3,-74 25,-108 25,-34 68,-56 111,-53 43,-3 87,3 130,12l-19 105c-19,-6 -37,-9 -59,-9 -28,0 -53,9 -53,37l0 80 114 0 -9 102 -108 0 0 362 -136 0 0 -359 -71 0 3 -102z"/>
  <path class="fil2" d="M2061 21447l71 0 0 -68c-3,-37 3,-74 25,-108 25,-34 68,-56 111,-53 43,-3 87,3 130,12l-19 105c-19,-6 -37,-9 -59,-9 -28,0 -53,9 -53,37l0 80 114 0 -9 102 -108 0 0 362 -136 0 0 -359 -71 0 3 -102z"/>
  <path class="fil3" d="M3546 21447l71 0 0 -68c-3,-37 3,-74 25,-108 25,-34 68,-56 111,-53 43,-3 87,3 130,12l-19 105c-19,-6 -37,-9 -59,-9 -28,0 -53,9 -53,37l0 80 114 0 -9 102 -108 0 0 362 -136 0 0 -359 -71 0 3 -102z"/>
  <path class="fil32" d="M1033 22678l-579 0c-28,0 -50,22 -50,50 0,0 0,0 0,0l0 582c0,28 22,50 50,50 0,0 0,0 0,0l579 0c28,0 50,-22 50,-50l0 -582c0,-28 -22,-49 -50,-49zm-427 579l-102 0 0 -325 102 0 0 325zm-50 -368c-31,0 -59,-25 -59,-59 0,-31 25,-59 59,-59 31,0 59,25 59,59 0,0 0,0 0,0 0,34 -28,59 -59,59zm325 368l0 -158c0,-37 0,-87 -53,-87 -53,0 -62,40 -62,84l0 161 -102 0 0 -325 96 0 0 43 0 0c19,-34 56,-53 96,-53 102,0 121,68 121,155l0 176 -96 3z"/>
  <path class="fil2" d="M2519 22678l-579 0c-28,0 -50,22 -50,50 0,0 0,0 0,0l0 582c0,28 22,50 50,50 0,0 0,0 0,0l579 0c28,0 50,-22 50,-50l0 -582c0,-28 -22,-49 -50,-49zm-427 579l-102 0 0 -325 102 0 0 325zm-49 -368c-31,0 -59,-25 -59,-59 0,-31 25,-59 59,-59 31,0 59,25 59,59 0,0 0,0 0,0 0,34 -28,59 -59,59zm325 368l0 -158c0,-37 0,-87 -53,-87 -53,0 -62,40 -62,84l0 161 -102 0 0 -325 96 0 0 43 0 0c19,-34 56,-53 96,-53 102,0 121,68 121,155l0 176 -96 3z"/>
  <path class="fil3" d="M4004 22678l-579 0c-28,0 -50,22 -50,50 0,0 0,0 0,0l0 582c0,28 22,50 50,50 0,0 0,0 0,0l579 0c28,0 50,-22 50,-50l0 -582c0,-28 -22,-49 -50,-49zm-427 579l-102 0 0 -325 102 0 0 325zm-50 -368c-31,0 -59,-25 -59,-59 0,-31 25,-59 59,-59 31,0 59,25 59,59 0,0 0,0 0,0 0,34 -28,59 -59,59zm325 368l0 -158c0,-37 0,-87 -53,-87 -53,0 -62,40 -62,84l0 161 -102 0 0 -325 96 0 0 43 0 0c19,-34 56,-53 96,-53 102,0 121,68 121,155l0 176 -96 3z"/>
  <path class="fil33" d="M743 25636c-183,0 -331,149 -331,331 0,130 77,251 198,303 0,-25 0,-50 6,-77 6,-28 43,-179 43,-179 -6,-15 -9,-34 -9,-53 0,-50 28,-87 65,-87 25,0 43,19 46,43 0,3 0,3 0,6 -6,40 -15,80 -28,118 -6,28 9,56 37,62 6,0 9,3 15,3 62,0 105,-80 105,-176 0,-71 -50,-127 -139,-127 -87,-3 -158,65 -161,152 0,3 0,6 0,9 0,25 6,46 22,65 6,3 6,12 3,19l-6 28c0,6 -6,9 -12,9 0,0 -3,0 -3,0 -46,-19 -68,-68 -68,-127 0,-93 80,-207 235,-207 127,0 210,93 210,189 0,130 -71,226 -179,226 -31,0 -62,-15 -80,-40 0,0 -19,77 -25,90 -6,25 -19,50 -31,71 31,9 62,12 93,12 183,0 331,-149 331,-331 0,-183 -155,-331 -337,-331l0 0z"/>
  <path class="fil2" d="M2228 25636c-183,0 -331,149 -331,331 0,130 77,251 198,303 0,-25 0,-50 6,-77 6,-28 43,-179 43,-179 -6,-15 -9,-34 -9,-53 0,-50 28,-87 65,-87 25,0 43,19 46,43 0,3 0,3 0,6 -6,40 -15,80 -28,118 -6,28 9,56 37,62 6,0 9,3 15,3 62,0 105,-80 105,-176 0,-71 -50,-127 -139,-127 -87,-3 -158,65 -161,152 0,3 0,6 0,9 0,25 6,46 22,65 6,3 6,12 3,19l-6 28c0,6 -6,9 -12,9 0,0 -3,0 -3,0 -46,-19 -68,-68 -68,-127 0,-93 80,-207 235,-207 127,0 210,93 210,189 0,130 -71,226 -179,226 -31,0 -62,-15 -80,-40 0,0 -19,77 -25,90 -6,25 -19,50 -31,71 31,9 62,12 93,12 183,0 331,-149 331,-331 0,-183 -155,-331 -337,-331l0 0z"/>
  <path class="fil3" d="M3713 25636c-183,0 -331,149 -331,331 0,130 77,251 198,303 0,-25 0,-50 6,-77 6,-28 43,-179 43,-179 -6,-15 -9,-34 -9,-53 0,-50 28,-87 65,-87 25,0 43,19 46,43 0,3 0,3 0,6 -6,40 -15,80 -28,118 -6,28 9,56 37,62 6,0 9,3 15,3 62,0 105,-80 105,-176 0,-71 -50,-127 -139,-127 -87,-3 -158,65 -161,152 0,3 0,6 0,9 0,25 6,46 22,65 6,3 6,12 3,19l-6 28c0,6 -6,9 -12,9 0,0 -3,0 -3,0 -46,-19 -68,-68 -68,-127 0,-93 80,-207 235,-207 127,0 210,93 210,189 0,130 -71,226 -179,226 -31,0 -62,-15 -80,-40 0,0 -19,77 -25,90 -6,25 -19,50 -31,71 31,9 62,12 93,12 183,0 331,-149 331,-331 0,-183 -155,-331 -337,-331l0 0z"/>
  <path class="fil34" d="M907 18269c0,0 40,-90 37,-93 -3,-3 -90,53 -90,53 0,0 -108,-84 -111,-84 -3,0 -96,74 -96,74 0,0 -96,-71 -99,-68 -3,3 31,114 31,114 -68,28 -130,77 -173,136 -43,62 -68,136 -68,210 0,213 183,387 405,387 232,0 405,-173 405,-387 -3,-149 -99,-288 -241,-343zm40 347c0,-71 -43,-136 -108,-167l15 -37c80,37 133,118 136,204l-43 0zm-77 -251l22 -56c124,50 204,170 207,303l-62 0c0,-105 -65,-204 -167,-248l0 0z"/>
  <path class="fil2" d="M2392 18269c0,0 40,-90 37,-93 -3,-3 -90,53 -90,53 0,0 -108,-84 -111,-84 -3,0 -96,74 -96,74 0,0 -96,-71 -99,-68 -3,3 31,114 31,114 -68,28 -130,77 -173,136 -43,62 -68,136 -68,210 0,213 183,387 405,387 232,0 405,-173 405,-387 -3,-149 -99,-288 -241,-343zm40 347c0,-71 -43,-136 -108,-167l15 -37c80,37 133,118 136,204l-43 0zm-77 -251l22 -56c124,50 204,170 207,303l-62 0c0,-105 -65,-204 -167,-248l0 0z"/>
  <path class="fil3" d="M3877 18269c0,0 40,-90 37,-93 -3,-3 -90,53 -90,53 0,0 -108,-84 -111,-84 -3,0 -96,74 -96,74 0,0 -96,-71 -99,-68 -3,3 31,114 31,114 -68,28 -130,77 -173,136 -43,62 -68,136 -68,210 0,213 183,387 405,387 232,0 405,-173 405,-387 -3,-149 -99,-288 -241,-343zm40 347c0,-71 -43,-136 -108,-167l15 -37c80,37 133,118 136,204l-43 0zm-77 -251l22 -56c124,50 204,170 207,303l-62 0c0,-105 -65,-204 -167,-248l0 0z"/>
  <path class="fil35" d="M749 1193c0,0 93,0 93,-278 0,-53 -43,-93 -93,-93 -53,0 -93,43 -93,93 -3,278 93,278 93,278zm114 -93c3,-15 6,-31 9,-50l3 -12c71,-28 130,-80 167,-149 15,-28 28,-62 34,-93 9,-37 12,-74 6,-111 -9,-74 -43,-145 -96,-198 -31,-31 -65,-53 -102,-71 -40,-19 -80,-28 -124,-28 -186,-6 -337,139 -343,322 0,22 0,40 3,62 15,105 84,198 179,248l25 12c0,3 0,9 3,15 3,15 6,31 9,46 -96,-31 -176,-96 -223,-186 -19,-34 -31,-71 -40,-108 -9,-40 -9,-84 -6,-127 12,-87 53,-167 114,-229 34,-34 74,-59 118,-77 198,-84 424,9 507,207 28,68 37,142 25,213 -19,124 -99,229 -210,285 -19,12 -40,19 -59,28l0 0zm19 -152l0 -19c0,-12 0,-22 0,-34 0,-3 -3,-9 -3,-12 53,-43 80,-111 71,-183 -3,-19 -9,-40 -15,-59 -9,-22 -25,-43 -40,-59 -19,-19 -37,-31 -59,-40 -31,-9 -56,-15 -84,-15 -28,0 -53,3 -80,15 -22,9 -43,22 -62,37 -19,15 -34,37 -43,59 -9,19 -15,37 -19,56 -3,22 -3,40 0,62 6,50 31,96 68,127l-3 15c-3,12 -3,22 0,34l0 15c-37,-22 -68,-56 -90,-96 -12,-22 -22,-46 -28,-71 -6,-28 -6,-56 -3,-84 6,-56 34,-108 71,-149 22,-22 46,-40 74,-53 31,-12 65,-22 99,-22 34,0 68,6 99,19 28,12 56,28 77,50 22,22 40,46 56,74 12,22 19,46 25,71 3,25 6,53 0,77 -3,25 -9,50 -19,74 -22,46 -56,87 -102,111l9 -3zm-133 -340c53,0 96,43 96,93 0,50 -43,96 -93,96 -53,0 -96,-43 -96,-93 -3,-53 40,-96 93,-96 0,0 0,0 0,0z"/>
  <path class="fil2" d="M2234 1193c0,0 93,0 93,-278 0,-53 -43,-93 -93,-93 -53,0 -93,43 -93,93 -3,278 93,278 93,278zm114 -93c3,-15 6,-31 9,-50l3 -12c71,-28 130,-80 167,-149 15,-28 28,-62 34,-93 9,-37 12,-74 6,-111 -9,-74 -43,-145 -96,-198 -31,-31 -65,-53 -102,-71 -40,-19 -80,-28 -124,-28 -186,-6 -337,139 -343,322 0,22 0,40 3,62 15,105 84,198 179,248l25 12c0,3 0,9 3,15 3,15 6,31 9,46 -96,-31 -176,-96 -223,-186 -19,-34 -31,-71 -40,-108 -9,-40 -9,-84 -6,-127 12,-87 53,-167 114,-229 34,-34 74,-59 118,-77 198,-84 424,9 507,207 28,68 37,142 25,213 -19,124 -99,229 -210,285 -19,12 -40,19 -59,28l0 0zm19 -152l0 -19c0,-12 0,-22 0,-34 0,-3 -3,-9 -3,-12 53,-43 80,-111 71,-183 -3,-19 -9,-40 -15,-59 -9,-22 -25,-43 -40,-59 -19,-19 -37,-31 -59,-40 -31,-9 -56,-15 -84,-15 -28,0 -53,3 -80,15 -22,9 -43,22 -62,37 -19,15 -34,37 -43,59 -9,19 -15,37 -19,56 -3,22 -3,40 0,62 6,50 31,96 68,127l-3 15c-3,12 -3,22 0,34l0 15c-37,-22 -68,-56 -90,-96 -12,-22 -22,-46 -28,-71 -6,-28 -6,-56 -3,-84 6,-56 34,-108 71,-149 22,-22 46,-40 74,-53 31,-12 65,-22 99,-22 34,0 68,6 99,19 28,12 56,28 77,50 22,22 40,46 56,74 12,22 19,46 25,71 3,25 6,53 0,77 -3,25 -9,50 -19,74 -22,46 -56,87 -102,111l9 -3zm-133 -340c53,0 96,43 96,93 0,50 -43,96 -93,96 -53,0 -96,-43 -96,-93 -3,-53 40,-96 93,-96 0,0 0,0 0,0z"/>
  <path class="fil3" d="M3719 1193c0,0 93,0 93,-278 0,-53 -43,-93 -93,-93 -53,0 -93,43 -93,93 -3,278 93,278 93,278zm114 -93c3,-15 6,-31 9,-50l3 -12c71,-28 130,-80 167,-149 15,-28 28,-62 34,-93 9,-37 12,-74 6,-111 -9,-74 -43,-145 -96,-198 -31,-31 -65,-53 -102,-71 -40,-19 -80,-28 -124,-28 -186,-6 -337,139 -343,322 0,22 0,40 3,62 15,105 84,198 179,248l25 12c0,3 0,9 3,15 3,15 6,31 9,46 -96,-31 -176,-96 -223,-186 -19,-34 -31,-71 -40,-108 -9,-40 -9,-84 -6,-127 12,-87 53,-167 114,-229 34,-34 74,-59 118,-77 198,-84 424,9 507,207 28,68 37,142 25,213 -19,124 -99,229 -210,285 -19,12 -40,19 -59,28l0 0zm19 -152l0 -19c0,-12 0,-22 0,-34 0,-3 -3,-9 -3,-12 53,-43 80,-111 71,-183 -3,-19 -9,-40 -15,-59 -9,-22 -25,-43 -40,-59 -19,-19 -37,-31 -59,-40 -31,-9 -56,-15 -84,-15 -28,0 -53,3 -80,15 -22,9 -43,22 -62,37 -19,15 -34,37 -43,59 -9,19 -15,37 -19,56 -3,22 -3,40 0,62 6,50 31,96 68,127l-3 15c-3,12 -3,22 0,34l0 15c-37,-22 -68,-56 -90,-96 -12,-22 -22,-46 -28,-71 -6,-28 -6,-56 -3,-84 6,-56 34,-108 71,-149 22,-22 46,-40 74,-53 31,-12 65,-22 99,-22 34,0 68,6 99,19 28,12 56,28 77,50 22,22 40,46 56,74 12,22 19,46 25,71 3,25 6,53 0,77 -3,25 -9,50 -19,74 -22,46 -56,87 -102,111l9 -3zm-133 -340c53,0 96,43 96,93 0,50 -43,96 -93,96 -53,0 -96,-43 -96,-93 -3,-53 40,-96 93,-96 0,0 0,0 0,0z"/>
  <path class="fil36" d="M733 27137c-198,0 -359,161 -359,359 0,198 161,359 359,359 198,0 359,-161 359,-359 0,0 0,0 0,0 0,-198 -161,-359 -359,-359zm186 368l-263 179c-3,0 -3,3 -6,3 -3,0 -3,0 -6,0 -3,-3 -6,-6 -6,-9l0 -359c0,-3 3,-9 6,-9 3,-3 9,-3 12,0l263 179c6,0 6,9 0,15 3,0 0,0 0,0l0 0z"/>
  <path class="fil2" d="M2218 27137c-198,0 -359,161 -359,359 0,198 161,359 359,359 198,0 359,-161 359,-359 0,0 0,0 0,0 0,-198 -161,-359 -359,-359zm186 368l-263 179c-3,0 -3,3 -6,3 -3,0 -3,0 -6,0 -3,-3 -6,-6 -6,-9l0 -359c0,-3 3,-9 6,-9 3,-3 9,-3 12,0l263 179c6,0 6,9 0,15 3,0 0,0 0,0l0 0z"/>
  <path class="fil3" d="M3704 27137c-198,0 -359,161 -359,359 0,198 161,359 359,359 198,0 359,-161 359,-359 0,0 0,0 0,0 0,-198 -161,-359 -359,-359zm186 368l-263 179c-3,0 -3,3 -6,3 -3,0 -3,0 -6,0 -3,-3 -6,-6 -6,-9l0 -359c0,-3 3,-9 6,-9 3,-3 9,-3 12,0l263 179c6,0 6,9 0,15 3,0 0,0 0,0l0 0z"/>
  <path class="fil36" d="M1030 29219c0,53 -43,99 -99,99 -56,0 -96,-46 -96,-99 0,0 0,0 0,0 0,-12 3,-22 6,-34l0 0 -204 -124c-31,46 -90,59 -136,28 -28,-19 -43,-50 -43,-80 0,-53 43,-99 96,-99 34,0 65,15 84,43l204 -124 0 0c-3,-9 -6,-22 -6,-34 0,-56 43,-99 99,-99 56,0 99,43 99,99 0,56 -43,99 -99,99 -34,0 -65,-19 -84,-46l-204 124 0 0c3,12 6,22 6,34 0,12 -3,25 -6,34l0 0 204 124c28,-46 90,-59 136,-31 25,22 43,53 43,87l0 0z"/>
  <path class="fil2" d="M2516 29219c0,53 -43,99 -99,99 -56,0 -96,-46 -96,-99 0,0 0,0 0,0 0,-12 3,-22 6,-34l0 0 -204 -124c-31,46 -90,59 -136,28 -28,-19 -43,-50 -43,-80 0,-53 43,-99 96,-99 34,0 65,15 84,43l204 -124 0 0c-3,-9 -6,-22 -6,-34 0,-56 43,-99 99,-99 56,0 99,43 99,99 0,56 -43,99 -99,99 -34,0 -65,-19 -84,-46l-204 124 0 0c3,12 6,22 6,34 0,12 -3,25 -6,34l0 0 204 124c28,-46 90,-59 136,-31 25,22 43,53 43,87l0 0z"/>
  <path class="fil3" d="M4001 29219c0,53 -43,99 -99,99 -56,0 -96,-46 -96,-99 0,0 0,0 0,0 0,-12 3,-22 6,-34l0 0 -204 -124c-31,46 -90,59 -136,28 -28,-19 -43,-50 -43,-80 0,-53 43,-99 96,-99 34,0 65,15 84,43l204 -124 0 0c-3,-9 -6,-22 -6,-34 0,-56 43,-99 99,-99 56,0 99,43 99,99 0,56 -43,99 -99,99 -34,0 -65,-19 -84,-46l-204 124 0 0c3,12 6,22 6,34 0,12 -3,25 -6,34l0 0 204 124c28,-46 90,-59 136,-31 25,22 43,53 43,87l0 0z"/>
  <path class="fil37" d="M894 24872l-303 0c-111,3 -201,-84 -204,-192l0 -328c3,-111 96,-198 204,-195l303 0c111,-3 201,84 204,195l0 325c-3,111 -96,198 -204,195zm-303 -644c-71,-3 -133,53 -136,127l0 325c3,71 65,130 136,127l303 0c71,3 133,-53 136,-127l0 -328c-3,-71 -65,-127 -136,-124l-303 0z"/>
  <path class="fil2" d="M2379 24872l-303 0c-111,3 -201,-84 -204,-192l0 -328c3,-111 96,-198 204,-195l303 0c111,-3 201,84 204,195l0 325c-3,111 -96,198 -204,195zm-303 -644c-71,-3 -133,53 -136,127l0 325c3,71 65,130 136,127l303 0c71,3 133,-53 136,-127l0 -328c-3,-71 -65,-127 -136,-124l-303 0z"/>
  <path class="fil3" d="M3865 24872l-303 0c-111,3 -201,-84 -204,-192l0 -328c3,-111 96,-198 204,-195l303 0c111,-3 201,84 204,195l0 325c-3,111 -96,198 -204,195zm-303 -644c-71,-3 -133,53 -136,127l0 325c3,71 65,130 136,127l303 0c71,3 133,-53 136,-127l0 -328c-3,-71 -65,-127 -136,-124l-303 0z"/>
  <path class="fil38" d="M743 24698c-102,0 -183,-80 -183,-183 0,-102 80,-183 183,-183 102,0 183,80 183,183 0,102 -80,183 -183,183 0,0 0,0 0,0zm0 -300c-65,0 -121,53 -121,121 0,65 53,121 121,121 65,0 121,-53 121,-121 0,0 0,0 0,0 0,-68 -56,-121 -121,-121z"/>
  <path class="fil2" d="M2228 24698c-102,0 -183,-80 -183,-183 0,-102 80,-183 183,-183 102,0 183,80 183,183 0,102 -80,183 -183,183 0,0 0,0 0,0zm0 -300c-65,0 -121,53 -121,121 0,65 53,121 121,121 65,0 121,-53 121,-121 0,0 0,0 0,0 0,-68 -56,-121 -121,-121z"/>
  <path class="fil3" d="M3713 24698c-102,0 -183,-80 -183,-183 0,-102 80,-183 183,-183 102,0 183,80 183,183 0,102 -80,183 -183,183 0,0 0,0 0,0zm0 -300c-65,0 -121,53 -121,121 0,65 53,121 121,121 65,0 121,-53 121,-121 0,0 0,0 0,0 0,-68 -56,-121 -121,-121z"/>
  <path class="fil39" d="M981 24327c0,25 -19,46 -46,46 -25,0 -43,-19 -43,-46 0,-25 19,-46 43,-46 25,0 46,22 46,46l0 0z"/>
  <path class="fil2" d="M2466 24327c0,25 -19,46 -46,46 -25,0 -43,-19 -43,-46 0,-25 19,-46 43,-46 25,0 46,22 46,46l0 0z"/>
  <path class="fil3" d="M3951 24327c0,25 -19,46 -46,46 -25,0 -43,-19 -43,-46 0,-25 19,-46 43,-46 25,0 46,22 46,46l0 0z"/>
  <path class="fil40" d="M863 4080c0,6 6,9 9,3l244 -285c6,-6 3,-9 -6,-12l-254 -3c-6,0 -12,6 -12,15l19 282z"/>
  <path class="fil2" d="M2348 4080c0,6 6,9 9,3l244 -285c6,-6 3,-9 -6,-12l-254 -3c-6,0 -12,6 -12,15l19 282z"/>
  <path class="fil3" d="M3834 4080c0,6 6,9 9,3l244 -285c6,-6 3,-9 -6,-12l-254 -3c-6,0 -12,6 -12,15l19 282z"/>
  <path class="fil40" d="M1114 3742c9,0 9,-3 3,-9l-467 -396c-6,-6 -9,-3 -9,6l68 387c3,6 9,15 15,15l390 -3zm-381 -65c0,-6 3,-15 6,-22 6,-6 12,-9 19,-9 6,0 15,3 19,6 6,6 9,12 9,19 0,6 -3,15 -6,22 -6,6 -9,9 -19,9 -6,0 -12,-3 -19,-6 -6,-3 -9,-9 -9,-19zm-6 -108l0 0c74,6 121,50 139,130l0 3 -37 0c-12,-56 -46,-87 -99,-93l-3 -40zm204 130l-37 3 0 -3c-22,-99 -77,-152 -167,-158l-3 -40 3 0c111,6 179,68 204,189l0 9z"/>
  <path class="fil2" d="M2599 3742c9,0 9,-3 3,-9l-467 -396c-6,-6 -9,-3 -9,6l68 387c3,6 9,15 15,15l390 -3zm-381 -65c0,-6 3,-15 6,-22 6,-6 12,-9 19,-9 6,0 15,3 19,6 6,6 9,12 9,19 0,6 -3,15 -6,22 -6,6 -9,9 -19,9 -6,0 -12,-3 -19,-6 -6,-3 -9,-9 -9,-19zm-6 -108l0 0c74,6 121,50 139,130l0 3 -37 0c-12,-56 -46,-87 -99,-93l-3 -40zm204 130l-37 3 0 -3c-22,-99 -77,-152 -167,-158l-3 -40 3 0c111,6 179,68 204,189l0 9z"/>
  <path class="fil3" d="M4084 3742c9,0 9,-3 3,-9l-467 -396c-6,-6 -9,-3 -9,6l68 387c3,6 9,15 15,15l390 -3zm-381 -65c0,-6 3,-15 6,-22 6,-6 12,-9 19,-9 6,0 15,3 19,6 6,6 9,12 9,19 0,6 -3,15 -6,22 -6,6 -9,9 -19,9 -6,0 -12,-3 -19,-6 -6,-3 -9,-9 -9,-19zm-6 -108l0 0c74,6 121,50 139,130l0 3 -37 0c-12,-56 -46,-87 -99,-93l-3 -40zm204 130l-37 3 0 -3c-22,-99 -77,-152 -167,-158l-3 -40 3 0c111,6 179,68 204,189l0 9z"/>
  <path class="fil40" d="M368 3637c-6,6 -3,9 3,9l263 -31c6,0 12,-6 12,-15l-43 -244c-3,-6 -6,-9 -12,-3l-223 285z"/>
  <path class="fil2" d="M1853 3637c-6,6 -3,9 3,9l263 -31c6,0 12,-6 12,-15l-43 -244c-3,-6 -6,-9 -12,-3l-223 285z"/>
  <path class="fil3" d="M3339 3637c-6,6 -3,9 3,9l263 -31c6,0 12,-6 12,-15l-43 -244c-3,-6 -6,-9 -12,-3l-223 285z"/>
  <path class="fil40" d="M709 3783c-6,0 -19,0 -25,-3l-3 -3 -3 -3c-3,-6 -6,-15 -6,-22l-15 -80c0,-6 -9,-12 -15,-12l-266 28c-6,0 -9,6 -3,9l439 390c6,6 9,3 9,-6l-15 -285c0,-6 -6,-15 -15,-15l-80 3z"/>
  <path class="fil2" d="M2194 3783c-6,0 -19,0 -25,-3l-3 -3 -3 -3c-3,-6 -6,-15 -6,-22l-15 -80c0,-6 -9,-12 -15,-12l-266 28c-6,0 -9,6 -3,9l439 390c6,6 9,3 9,-6l-15 -285c0,-6 -6,-15 -15,-15l-80 3z"/>
  <path class="fil3" d="M3679 3783c-6,0 -19,0 -25,-3l-3 -3 -3 -3c-3,-6 -6,-15 -6,-22l-15 -80c0,-6 -9,-12 -15,-12l-266 28c-6,0 -9,6 -3,9l439 390c6,6 9,3 9,-6l-15 -285c0,-6 -6,-15 -15,-15l-80 3z"/>
  <path class="fil41" d="M507 2065l0 343c0,31 25,56 56,56l37 0 0 118c0,31 25,53 53,53 28,0 53,-25 53,-53l0 -118 71 0 0 118c0,31 25,53 53,53 28,0 53,-25 53,-53l0 -118 40 0c31,0 56,-25 56,-56l0 -343 -470 0zm71 368c-25,0 -46,-22 -46,-46 0,-25 22,-46 46,-46 25,0 46,22 46,46 0,28 -19,46 -46,46zm127 0c0,-46 -19,-87 -50,-118 -31,-31 -74,-50 -118,-50l0 -68c130,0 235,105 235,235l-68 0zm114 0c0,-158 -121,-278 -278,-278l0 -68c195,0 347,152 347,350l-68 0 0 -3z"/>
  <path class="fil2" d="M1993 2065l0 343c0,31 25,56 56,56l37 0 0 118c0,31 25,53 53,53 28,0 53,-25 53,-53l0 -118 71 0 0 118c0,31 25,53 53,53 28,0 53,-25 53,-53l0 -118 40 0c31,0 56,-25 56,-56l0 -343 -470 0zm71 368c-25,0 -46,-22 -46,-46 0,-25 22,-46 46,-46 25,0 46,22 46,46 0,28 -19,46 -46,46zm127 0c0,-46 -19,-87 -50,-118 -31,-31 -74,-50 -118,-50l0 -68c130,0 235,105 235,235l-68 0zm114 0c0,-158 -121,-278 -278,-278l0 -68c195,0 347,152 347,350l-68 0 0 -3z"/>
  <path class="fil3" d="M3478 2065l0 343c0,31 25,56 56,56l37 0 0 118c0,31 25,53 53,53 28,0 53,-25 53,-53l0 -118 71 0 0 118c0,31 25,53 53,53 28,0 53,-25 53,-53l0 -118 40 0c31,0 56,-25 56,-56l0 -343 -470 0zm71 368c-25,0 -46,-22 -46,-46 0,-25 22,-46 46,-46 25,0 46,22 46,46 0,28 -19,46 -46,46zm127 0c0,-46 -19,-87 -50,-118 -31,-31 -74,-50 -118,-50l0 -68c130,0 235,105 235,235l-68 0zm114 0c0,-158 -121,-278 -278,-278l0 -68c195,0 347,152 347,350l-68 0 0 -3z"/>
  <path class="fil41" d="M433 2053c-31,0 -53,25 -53,53l0 223c0,31 25,53 53,53 28,0 53,-25 53,-53l0 -223c0,-28 -25,-53 -53,-53z"/>
  <path class="fil2" d="M1918 2053c-31,0 -53,25 -53,53l0 223c0,31 25,53 53,53 28,0 53,-25 53,-53l0 -223c0,-28 -25,-53 -53,-53z"/>
  <path class="fil3" d="M3404 2053c-31,0 -53,25 -53,53l0 223c0,31 25,53 53,53 28,0 53,-25 53,-53l0 -223c0,-28 -25,-53 -53,-53z"/>
  <path class="fil41" d="M1105 2106c0,-31 -25,-53 -53,-53 -28,0 -53,25 -53,53l0 223c0,31 25,53 53,53 28,0 53,-25 53,-53l0 -223z"/>
  <path class="fil2" d="M2590 2106c0,-31 -25,-53 -53,-53 -28,0 -53,25 -53,53l0 223c0,31 25,53 53,53 28,0 53,-25 53,-53l0 -223z"/>
  <path class="fil3" d="M4075 2106c0,-31 -25,-53 -53,-53 -28,0 -53,25 -53,53l0 223c0,31 25,53 53,53 28,0 53,-25 53,-53l0 -223z"/>
  <path class="fil41" d="M860 1855l37 -68c3,-3 0,-9 -3,-9 -3,-3 -9,0 -9,3l-37 68c-31,-15 -65,-22 -102,-22 -37,0 -71,9 -102,22l-37 -68c-3,-3 -6,-6 -9,-3 -3,0 -6,6 -3,9l37 68c-71,37 -121,108 -121,192l476 0c-6,-84 -56,-155 -127,-192zm-226 105c-9,0 -22,-9 -22,-22 0,-12 9,-22 22,-22 12,0 22,9 22,22 -3,12 -9,22 -22,22zm217 0c-9,0 -22,-9 -22,-22 0,-12 9,-22 22,-22 9,0 22,9 22,22 0,12 -9,22 -22,22z"/>
  <path class="fil2" d="M2345 1855l37 -68c3,-3 0,-9 -3,-9 -3,-3 -9,0 -9,3l-37 68c-31,-15 -65,-22 -102,-22 -37,0 -71,9 -102,22l-37 -68c-3,-3 -6,-6 -9,-3 -3,0 -6,6 -3,9l37 68c-71,37 -121,108 -121,192l476 0c-6,-84 -56,-155 -127,-192zm-226 105c-9,0 -22,-9 -22,-22 0,-12 9,-22 22,-22 12,0 22,9 22,22 -3,12 -9,22 -22,22zm217 0c-9,0 -22,-9 -22,-22 0,-12 9,-22 22,-22 9,0 22,9 22,22 0,12 -9,22 -22,22z"/>
  <path class="fil3" d="M3831 1855l37 -68c3,-3 0,-9 -3,-9 -3,-3 -9,0 -9,3l-37 68c-31,-15 -65,-22 -102,-22 -37,0 -71,9 -102,22l-37 -68c-3,-3 -6,-6 -9,-3 -3,0 -6,6 -3,9l37 68c-71,37 -121,108 -121,192l476 0c-6,-84 -56,-155 -127,-192zm-226 105c-9,0 -22,-9 -22,-22 0,-12 9,-22 22,-22 12,0 22,9 22,22 -3,12 -9,22 -22,22zm217 0c-9,0 -22,-9 -22,-22 0,-12 9,-22 22,-22 9,0 22,9 22,22 0,12 -9,22 -22,22z"/>
 </g>
</svg>
